<?xml version="1.0" encoding="UTF-8"?><svg id="Layer_1" xmlns="http://www.w3.org/2000/svg" viewBox="0 0 398.34 104.88"><defs><style>.cls-1{fill:#f490ab;}.cls-2{fill:#f2809f;}</style></defs><g><path class="cls-2" d="M42.28,74.09c1.31-2.86,2.39-5.89,3.21-9.07,.83-3.19,1.68-6.47,2.56-9.85,.88-3.38,1.9-6.8,3.08-10.27,1.17-3.47,2.71-6.94,4.62-10.41,1.91-3.47,4.33-6.9,7.29-10.27,2.95-3.37,6.67-6.62,11.16-9.67l-.18-.11c-4.48,2.51-8.47,5.47-11.97,8.83-3.5,3.36-6.55,6.78-9.17,10.25-2.62,3.47-4.83,6.78-6.66,9.91-1.83,3.13-3.34,5.77-4.56,7.91-2.29,4.04-4.44,7.74-6.47,11.08-2.02,3.34-4.11,6.28-6.27,8.82-2.16,2.53-4.49,4.63-7.01,6.29-2.52,1.66-5.46,2.83-8.86,3.49-1.54,.3-3.02,.38-4.46,.24-1.43-.14-2.75-.49-3.95-1.05-1.19-.56-2.2-1.33-3.01-2.31-.81-.98-1.33-2.19-1.56-3.63-.23-1.44,.1-2.8,.99-4.08,.89-1.28,2.21-2.07,3.93-2.37,1.45-.26,2.72-.09,3.81,.49,1.09,.59,1.73,1.55,1.93,2.9,.15,1.01-.05,1.95-.6,2.82-.55,.87-1.4,1.46-2.55,1.77,.47,1.6,1.29,2.66,2.44,3.19,1.15,.53,2.58,.63,4.28,.29,3.07-.61,5.86-1.91,8.39-3.9,2.53-1.99,4.95-4.5,7.28-7.53,2.33-3.02,4.65-6.5,6.99-10.42,2.33-3.92,4.81-8.12,7.4-12.59,2.08-3.59,4.29-7.02,6.64-10.28,2.35-3.26,4.93-6.34,7.75-9.22,2.82-2.88,5.92-5.58,9.3-8.06,3.38-2.48,7.14-4.71,11.29-6.66,.3,.29,.45,.44,.75,.73-3.16,2.08-5.69,4.43-7.6,7-1.91,2.58-3.51,5.32-4.8,8.22-1.29,2.9-2.41,5.93-3.34,9.08-.94,3.15-1.97,6.4-3.1,9.75-1.13,3.35-2.47,6.75-4.04,10.19-1.56,3.44-3.65,6.93-6.25,10.46l.18,.11c1.87-2.15,3.61-4.25,5.23-6.29,1.62-2.04,3.33-4.33,5.14-6.88,1.81-2.55,3.8-5.48,5.98-8.8,2.18-3.32,4.73-7.27,7.67-11.83,2.19-3.4,4.55-6.59,7.07-9.55,2.52-2.96,5.27-5.61,8.24-7.92,2.97-2.31,6.2-4.25,9.67-5.78,3.47-1.53,7.22-2.54,11.26-2.98,2.13-.23,3.61-.25,4.44-.08,.82,.17,1.25,.55,1.29,1.13,.02,.29-.22,.58-.69,.87-.48,.29-1.12,.47-1.93,.55-.98,.1-1.79,.13-2.43,.1-.64-.03-1.31-.03-1.92-.08-.39-.03-.97-.08-1.7-.09-.72,0-1.4,.03-2.03,.11-.97,.13-2.07,.66-3.27,1.62-1.2,.96-2.41,2.28-3.61,3.96-1.21,1.68-2.4,3.7-3.58,6.03-1.18,2.34-2.28,4.94-3.25,7.77-1.56,4.54-3.06,8.71-4.54,12.44-1.49,3.72-3.22,7.15-5.19,10.28-1.97,3.13-4.33,6.03-7.07,8.71-2.74,2.68-6.11,5.26-10.09,7.75v.15l.17-.04c3.01-.72,6.04-1.67,9.12-2.85,3.08-1.17,5.92-2.61,8.54-4.29,2.76-1.77,5.46-4.12,8.07-7.06,2.61-2.94,5.26-6.87,7.97-11.79,.3,.04,.46,.06,.76,.1-2.21,4.04-4.4,7.48-6.59,10.29-2.19,2.81-4.58,5.23-7.18,7.23-1.92,1.48-3.92,2.75-6,3.82-2.08,1.07-4.11,1.97-6.1,2.7-1.99,.73-3.83,1.32-5.51,1.77-1.68,.45-3.06,.81-4.14,1.07-.48,.12-.95,.27-1.4,.45-.45,.18-.92,.38-1.43,.57-.5,.2-1.07,.4-1.71,.6-.64,.21-1.44,.43-2.4,.67-1.66,.41-2.53,.23-2.62-.55-.09-.87,.56-1.48,1.95-1.82,.48-.12,1.03-.2,1.63-.25,.6-.05,1.2-.07,1.81-.07,.6,0,1.18-.02,1.73-.05,.55-.03,1.01-.1,1.38-.19,1.18-.29,2.25-1.11,3.22-2.49,.97-1.37,1.91-3.15,2.84-5.33,.93-2.18,1.88-4.67,2.85-7.47,.97-2.8,2.08-5.75,3.32-8.85s2.66-6.28,4.26-9.54c1.59-3.25,3.45-6.42,5.57-9.47,2.12-3.06,4.57-5.95,7.35-8.64,2.78-2.7,5.95-5.01,9.52-6.89l-.18-.12c-2.93,1.06-5.7,2.48-8.29,4.25-2.6,1.77-5.05,3.78-7.36,6.03-2.31,2.24-4.5,4.72-6.57,7.43-2.07,2.71-4.05,5.56-5.93,8.56-1.88,3-4.03,6.34-6.43,10.02-2.4,3.69-4.95,7.35-7.64,10.99-2.69,3.64-5.48,7.05-8.37,10.22-2.89,3.18-5.81,5.76-8.78,7.73-.4,0-.6,.01-.99,.02Z"/><path class="cls-2" d="M123.96,31.61c-1.72,2.61-3.4,5.16-5.03,7.66-1.64,2.5-3.07,4.84-4.31,7.01-1.24,2.17-2.21,4.09-2.93,5.75-.72,1.66-1.05,2.95-1,3.88,.04,.68,.21,1.24,.51,1.67,.3,.43,.81,.6,1.53,.52,1.1-.13,2.28-.62,3.55-1.46,1.26-.84,2.57-1.87,3.91-3.09,1.34-1.22,2.68-2.57,4.03-4.05,1.34-1.48,2.61-2.93,3.81-4.32,1.19-1.4,2.27-2.69,3.22-3.9,.95-1.21,1.73-2.17,2.33-2.9,.28,.09,.42,.14,.69,.23-1.31,1.64-2.95,3.66-4.9,6.09-1.95,2.43-4.14,4.87-6.56,7.3-2.47,2.48-4.75,4.44-6.84,5.86-2.09,1.42-4.45,2.29-7.08,2.64-2.25,.3-3.97-.02-5.19-.99-1.22-.97-1.9-2.48-2.02-4.52-.14-2.19,.74-5.11,2.68-8.72,1.93-3.6,4.41-8.04,7.48-13.26,4.83-.67,7.25-.96,12.14-1.38Zm-4.9-11.1c-.07-1.41,.45-2.67,1.59-3.76,1.13-1.09,2.53-1.68,4.21-1.78,1.68-.09,3.14,.36,4.37,1.33,1.23,.97,1.87,2.18,1.93,3.6,.06,1.42-.49,2.62-1.63,3.65-1.14,1.03-2.54,1.58-4.21,1.67-1.67,.09-3.11-.31-4.33-1.22-1.22-.91-1.87-2.07-1.94-3.48Z"/><path class="cls-2" d="M129.46,57.78c5.15-8.66,10.67-17.19,16.42-25.47,5,.38,7.51,.67,12.54,1.4-5.22,5.73-7.8,8.68-12.87,14.81l.18,.16c3.04-3.56,5.93-6.29,8.62-8.23,2.7-1.94,5.1-3.07,7.18-3.42,.8-.68,1.52-1.21,2.15-1.57,.63-.37,1.46-.6,2.48-.68,1.02-.09,2.39-.01,4.11,.24,1.72,.25,4.08,.67,7.07,1.28-.7,.42-1.4,.91-2.09,1.49-.7,.57-1.33,1.21-1.91,1.91-.58,.7-1.05,1.45-1.41,2.25-.37,.8-.55,1.61-.54,2.45,.01,1.03,.33,2.05,.95,3.07,.62,1.02,1.6,1.68,2.94,2,.87,.21,1.74,.25,2.61,.15,.87-.11,1.71-.32,2.52-.63,.81-.31,1.58-.69,2.31-1.15,.73-.45,1.38-.9,1.96-1.34,.25,.24,.37,.36,.62,.6-.41,.29-.99,.71-1.74,1.28-.75,.57-1.76,1.06-3,1.49-1.25,.42-2.79,.7-4.61,.83-1.82,.13-4.02-.1-6.57-.65-1.39-.3-2.67-.75-3.83-1.35-1.17-.6-2.14-1.27-2.94-2-.79-.74-1.41-1.53-1.86-2.39-.45-.86-.68-1.73-.7-2.61-.03-1.47,.18-2.58,.63-3.33v-.15c-1.73,.47-3.61,1.45-5.63,2.95-2.02,1.5-3.96,3.22-5.83,5.17-1.87,1.95-3.56,3.95-5.06,5.99-1.51,2.04-2.63,3.78-3.37,5.2-4.55-.1-6.82-.06-11.33,.26Z"/><path class="cls-2" d="M235.48,52.19c-.66,.66-1.51,1.5-2.55,2.51-1.04,1.02-2.16,2.11-3.35,3.28-1.19,1.17-2.38,2.39-3.56,3.67-1.19,1.28-2.27,2.54-3.25,3.78-.98,1.24-1.78,2.42-2.41,3.55-.63,1.13-.94,2.13-.96,3.01-.02,1.42,.63,2.3,1.96,2.63,1.21,.3,2.64,.15,4.3-.44,1.66-.6,3.48-1.5,5.47-2.72,1.99-1.22,4.08-2.73,6.26-4.54,2.18-1.81,4.4-3.76,6.66-5.87,.2,.15,.31,.23,.51,.38-2.37,2.15-4.68,4.2-6.93,6.17-2.24,1.97-4.46,3.64-6.66,5.01-2.19,1.37-4.38,2.37-6.55,2.98-2.18,.61-4.38,.63-6.63,.06-1.96-.5-3.45-1.16-4.49-1.97-1.03-.81-1.79-1.69-2.27-2.63-.48-.94-.76-1.86-.84-2.77-.08-.91-.12-1.7-.11-2.39l-.26-.22c-.94,.68-1.94,1.35-3.02,1.99-1.08,.64-2.26,1.17-3.53,1.58-1.28,.41-2.61,.66-4,.75-1.39,.09-2.86-.08-4.42-.51-2.77-.75-4.87-2.01-6.29-3.79-1.42-1.77-2.14-4.2-2.15-7.29,0-2.16,.62-4.21,1.9-6.15s3.1-3.55,5.47-4.8c2.37-1.26,5.2-2.05,8.49-2.4,3.29-.34,6.9,0,10.83,1.02,2.29,.59,4.02,1.51,5.21,2.77,1.18,1.26,1.94,2.64,2.27,4.15l.18,.04c.93-1.31,1.4-1.96,2.34-3.28,4.98,1.07,7.46,1.57,12.41,2.44Zm-34.9,15.61c1.22,.33,2.78,.1,4.7-.71,1.92-.81,3.82-1.99,5.69-3.56,1.88-1.57,3.5-3.4,4.87-5.49,1.37-2.09,2.07-4.24,2.1-6.45,.02-1.13-.37-2.07-1.15-2.84-.78-.76-1.67-1.27-2.67-1.53-1.23-.32-2.48-.3-3.74,.06-1.27,.36-2.5,.95-3.71,1.78-1.21,.83-2.36,1.83-3.44,2.98-1.09,1.16-2.04,2.37-2.86,3.65-.82,1.28-1.47,2.59-1.94,3.93-.47,1.35-.7,2.58-.71,3.71,0,.83,.18,1.71,.56,2.62,.37,.91,1.14,1.52,2.3,1.84Z"/><path class="cls-2" d="M339.91,55.58c-.28,.22-.73,.6-1.36,1.12-.63,.53-1.39,1.07-2.29,1.64-.9,.57-1.89,1.1-2.97,1.61-1.09,.5-2.23,.85-3.43,1.02-1.56,.23-2.91,.14-4.05-.28-1.14-.42-2.14-1.05-3.02-1.91l-.18,.03c-.38,2.5-1.49,4.99-3.28,7.47-1.79,2.49-3.99,4.77-6.6,6.85-2.6,2.08-5.47,3.85-8.6,5.29-3.13,1.44-6.3,2.37-9.53,2.78-1.9,.24-3.73,.29-5.48,.14-1.75-.15-3.29-.55-4.61-1.21-1.32-.66-2.35-1.6-3.09-2.8s-1.06-2.74-.93-4.6c.19-2.78,1.15-5.35,2.9-7.71,1.75-2.36,3.96-4.44,6.64-6.26,2.68-1.82,5.68-3.32,9.01-4.52,3.33-1.2,6.6-2.01,9.79-2.43,2.63-.35,4.78-.35,6.43-.01,1.64,.34,3,.85,4.08,1.52,1.08,.67,1.95,1.46,2.62,2.35,.67,.89,1.35,1.7,2.04,2.42,.69,.72,1.48,1.3,2.38,1.72s2.1,.53,3.61,.31c1.38-.2,2.87-.73,4.46-1.58,1.59-.85,3.2-1.99,4.83-3.42,.25,.19,.37,.29,.62,.48Zm-29.69-3.11c-1.47,.2-3,.79-4.58,1.78-1.58,.99-3.14,2.21-4.66,3.67-1.52,1.46-2.96,3.07-4.32,4.83-1.35,1.77-2.55,3.53-3.58,5.28-1.04,1.75-1.87,3.43-2.5,5.04-.63,1.61-.99,3-1.09,4.17-.1,1.12,.13,1.99,.68,2.6,.55,.61,1.37,.86,2.46,.73,1.38-.17,2.82-.74,4.32-1.73,1.5-.99,2.98-2.22,4.47-3.69,1.48-1.47,2.91-3.1,4.28-4.89,1.37-1.79,2.61-3.57,3.71-5.34,1.1-1.77,2.01-3.48,2.73-5.12,.72-1.64,1.15-3.02,1.29-4.13,.14-1.11-.06-1.96-.62-2.55-.56-.59-1.42-.8-2.58-.65Z"/><path class="cls-2" d="M381.42,31.14c-9.73,9.03-19.36,18.16-28.65,27.64l.15,.12c1.53-1.41,3.22-2.93,5.06-4.57,1.84-1.64,3.82-3.19,5.93-4.62,2.11-1.44,4.3-2.65,6.56-3.62,2.26-.97,4.53-1.47,6.79-1.48,1.31,0,2.45,.21,3.4,.65,.96,.44,1.72,1.03,2.3,1.75,.57,.73,.96,1.56,1.14,2.49,.19,.93,.14,1.89-.13,2.87-.67,2.39-1.88,4.47-3.63,6.29-1.75,1.81-3.58,3.37-5.48,4.68l-.04,.14c4.33-.93,8.37-2.2,12.15-3.89,3.78-1.68,7.38-3.68,10.81-6.03,.23,.18,.34,.27,.57,.46-3.58,2.66-7.52,4.83-11.81,6.62-4.3,1.79-8.65,3.09-13.11,3.91-1.64,.99-3.41,1.94-5.31,2.84-1.91,.9-3.8,1.74-5.68,2.5-1.88,.77-3.68,1.41-5.4,1.93-1.72,.52-3.25,.85-4.57,.98-.58,.06-1.16,.1-1.76,.12-.59,.02-1.13-.04-1.62-.17-.48-.13-.85-.35-1.09-.67-.25-.32-.31-.76-.19-1.33,.2-.95,.89-1.79,2.1-2.5,1.2-.71,2.62-1.33,4.25-1.83,1.62-.5,3.29-.91,4.99-1.2,1.7-.29,3.13-.49,4.31-.61,.68-.69,1.47-1.5,2.36-2.43,.89-.93,1.79-1.93,2.71-3.02,.91-1.08,1.75-2.25,2.51-3.51,.76-1.26,1.32-2.54,1.66-3.86,.08-.33,.15-.71,.2-1.13,.05-.42,0-.83-.13-1.22-.14-.39-.41-.72-.82-.96-.41-.24-1.01-.36-1.78-.33-1.43,.05-3.23,.81-5.39,2.29-2.15,1.48-4.4,3.28-6.73,5.4-2.33,2.12-4.59,4.34-6.77,6.66-2.18,2.32-4.09,4.35-5.75,6.09-4.57,4.83-8.78,9.81-12.59,14.9-3.81,5.09-7.46,10.18-10.96,15.25-4.82,1.01-7.23,1.53-12.05,2.53,8.75-12.07,18-23.89,27.53-35.15,9.76-11.53,20.25-22.77,30.69-33.89,5.36-.58,8.02-.8,13.28-1.07Zm-29.5,39.4c-.08,.38-.05,.71,.08,1,.14,.29,.52,.4,1.16,.33,.75-.07,1.53-.35,2.34-.81,.81-.47,1.61-1.02,2.41-1.67,.8-.64,1.59-1.32,2.39-2.03,.79-.71,1.54-1.34,2.25-1.89-1.29,.13-2.54,.36-3.76,.68-1.22,.33-2.32,.71-3.3,1.15-.98,.44-1.79,.93-2.42,1.48-.63,.55-1.01,1.14-1.14,1.75Z"/></g><g><path class="cls-2" d="M275.08,42.24c-.46,.65-.91,1.29-1.36,1.93-9.24,13.13-18.63,26.2-28.15,39.21l11.19,1.3c3.84-5.68,7.7-11.43,11.58-17.24,3.72-5.58,7.63-11,11.73-16.26-2.12-2.54-3.81-5.56-4.99-8.93Z"/><g><path class="cls-1" d="M315.95,25.9c-.26-.08-.84-.04-.73,.19l.99,.17-.26-.36Z"/><path class="cls-1" d="M314.07,27.34c.47,.28,1.28,.66,2.2,.56-.93-.34-.53-.38-1.65-.73-.1-.22,.34-.37,.7-.32-.25-.09,.23-.35-.39-.48-.77,.27-.82,.6-.21,1.02-.22,.07-.48-.03-.66-.06Z"/><path class="cls-1" d="M302.93,43.31l.17,.03c-.06-.03-.12-.04-.17-.03Z"/><path class="cls-1" d="M291.54,46.4c.09-.03,.12-.13,.12-.22-.08,.07-.15,.13-.12,.22Z"/><path class="cls-1" d="M288.91,45.41c.08,.01,.14,0,.21,0-.09-.07-.18-.1-.21,0Z"/><path class="cls-1" d="M302.93,43.31l-.44-.09c.15,.29,.27,.12,.44,.09Z"/><path class="cls-1" d="M316.04,30.65c-.03-.09-.11-.17-.22-.25,.03,.07,.05,.14,.07,.21l.15,.04Z"/><path class="cls-1" d="M306.39,39.34l.06-.07c-.06-.1-.15-.21-.25-.33l.18,.4Z"/><path class="cls-1" d="M308.65,36.16c-.08,.05,.61,.53,.91,.75-.26-.23-.37-.37-.38-.47-.14-.09-.3-.18-.53-.28Z"/><path class="cls-1" d="M312.49,30.89l-.09-.14s.05,.1,.09,.14Z"/><path class="cls-1" d="M304.23,41.13c-.08-.09-.17-.17-.22-.21,.07,.08,.14,.15,.22,.21Z"/><path class="cls-1" d="M317.21,20.01l-.15,.03c.09,0,.15,0,.15-.03Z"/><path class="cls-1" d="M313.74,25.9l-.05-.07h-.47l.52,.07Z"/><path class="cls-1" d="M285.25,45.09v.02c.08-.1,.04-.08,0-.02Z"/><path class="cls-1" d="M270.89,22.48c-.8,.22-.86-.78-1.77-.39,.33,.02,1.22,.74,1.77,.39Z"/><path class="cls-1" d="M315.91,30.75c0,.07,0,.13-.03,.2,.04-.08,.05-.14,.03-.2Z"/><path class="cls-1" d="M269.13,22.09h0l-.09,.04,.09-.04Z"/><path class="cls-1" d="M280.27,42c-.06,.14-.09,.25-.11,.36,.04-.08,.08-.18,.11-.36Z"/><path class="cls-1" d="M283.42,46.76l-.08-.12c.03,.08,.05,.11,.08,.12Z"/><path class="cls-1" d="M277,41.27c-.02-.1,.03-.21-.13-.19-.02,.04-.03,.07-.04,.1,.1-.06,.18-.07,.17,.09Z"/><path class="cls-1" d="M274.58,38.99c-.04,.06-.06,.11-.08,.16l.1,.05-.02-.21Z"/><path class="cls-1" d="M310.71,8.67c-.11,.23-.26,.45-.43,.65,.4-.45,.99-.13,.43-.65Z"/><path class="cls-1" d="M315.57,30.56c.2,.07,.3,.12,.33,.19,0-.05,0-.1-.02-.14-.12-.04-.24-.06-.31-.05Z"/><path class="cls-1" d="M272.71,46.35l-.46-.54c.1,.19,.26,.38,.46,.54Z"/><path class="cls-1" d="M282.72,1.11l.12-.13c-.06,0-.11,.03-.12,.13Z"/><path class="cls-1" d="M270.65,44.5c.12-.3,.15-.51,.14-.69-.07,.03-.13,.04-.21,.09l.07,.59Z"/><path class="cls-1" d="M310.28,9.33h0Z"/><path class="cls-1" d="M314.61,11.74c-.35-.59-1.08,.32-1.69,.55-.67-.47,.49-.75,.81-1.3-.52-.26-1.59,.07-1.76-.24,.13-.13,.14-.23,.37-.3-1.02,.15-.95-1.2-2.21-.87,.04-.1,.1-.17,.15-.24-.35,.44-.76,.83-1.07,1.08-.2-.18-.85,.12-.39-.45,.1,.13,.32-.06,.54-.15h-.42c.58-.89,.53,.04,1.1-.48-.65-.19-1.7-.05-1.79-.56,.64-.81,.94,.49,1.17-.58l.19,.77c.79-1.5,.21,.39,1.11-1.16-.45-.9-1.08-.4-1.59-1.23-.53,.29-.51,.67-1.04,.96-1.6-.02,.89-2.67-.75-2.19-.62,.39-1.45,1.38-1.59,.44l.85-.81c-.68-.61-1.34,1.06-1.67-.09,.39-.31,.78,.07,.75-.12,0-1.11-.71,.31-1.09,.08l.45-.92c-.92-.35-2.15-.25-3.16-.47,.18-.25,.48-.46,.39-.85-1.39-.14-2.54-1.17-3.62-2.19l-.72,.73c-.11-.04-.1-.43,.07-.57-.4-.44-.17,.53-.49,.81-.28,0-.23-.58,0-.79-.53,.26-1.21,.49-1.85,.55-.64,.1-1.24-.01-1.63-.54l.21-.23c-.68-.44-.99,1.65-1.54,.81l.14-.15c-.74-.23-1.54-.16-2.29-.21-.75,0-1.45-.08-2.09-.72-.07,.64-.45,.5-.82,.47-.37-.03-.72,0-.65,.89-.97-.74-.78-1.11-2.14-1.47-.35,0-.26,1.2-.61,1.47l-.22-.9-.31,1.07-.57-1-.32,.32c.17,.01,.43,.32,.48,.58-.46,.52-1.57-.18-1.75-.63l-1.1,1.22c-.11-.36,.08-.56,.18-.84-.39,1.14-.49-.87-.85,.19,.17,.16,.16,.53,.22,.71-.53-.37-1.28-.03-1.72,.43l-.17-.62c-.27,.08-.53,.2-.78,.34-.24,.16-.48,.35-.71,.54-.47,.38-.94,.78-1.46,1.1,.53,.02,1.03,1,.81,1.27l-.65-.74c.15,.63,.49,.1,.53,.98-.41,.15-.87-.75-.83-1.16l-.26,.6c-.19-.22-.18-.42-.36-.75,.17,.62-1.37-.23-1.01,.82l-.2-.21c-1,.75-1.18,1.42-1.9,2.1,.56,.62,.15,.75,.43,1.45-.66,.32-1.73,.43-2.24,1.15-.06,.75,.44,.6,.66,1.13-.62-.45-1.1,.27-1.26-.42-.27,.45-.45,.74-.59,1.09-.13,.36-.2,.8-.29,1.51,.34,.05,.54,0,.72,.2-.01,.26-.55,.27-.85,.05l-.03-.09c.08,.9-.77,1.34-1.58,1.86-.41,.26-.82,.52-1.04,.84-.21,.32-.25,.69,.01,1.12l-.05-.09c.11,.49,.23,.96,.35,1.43-.32,.48-.43-.5-1.03-.26,.4,.84,.25,1.32,.01,1.77-.21,.45-.53,.87-.18,1.5-1.18,.2-1.27,1-1.25,1.81,.05,.83,.28,1.66-.48,2.23l.54-.05c.51,.31-.32,.35-.46,.58,.42-.03,.49-.32,.78-.13,.29,1.26,.18,2.52,.02,3.88-.15,1.35-.32,2.79-.16,4.16,.17,1,2.78-.34,1.97,1.19l-1.04,.02c.89,.71,1.26,1.6,1.67,2.49,.4,.88,.85,1.77,1.78,2.27-.25,.03-.5,.19-.6,.03-.4,.73,.79,1.25,1.27,.9,.11,.27-.39,.36-.53,.69-.1,.59,1.33,.24,.9,.84-.07,.1-.25,.06-.34,.03,.43,0,.71,1,1.18,.27,.16,.8,1.15,.74,1.18,1.47,.9-.4,.54,1.16,1.53,.27-.97,.96,.18,1.64,.92,1.41-.37,.23,.03,.57-.46,.9,.41,.31,.94,.38,1.28-.23-.2,1.87,2.21-.01,1.53,1.97,1.36,.09,2.53,.23,3.55,.43l-1.49-3.05c-.01,.3,0,.59,.01,.86,.02,.29,.06,.42,.11,.64-.36,.01-.56-.17-.65-.42-.09-.31-.06-.79,0-1.2l1.8,3.67c-.3-.11-.6-.17-.87,.43,.24,.02,.47,.01,.67-.01l-2.05-4.19c.02,.3,.06,.58,.12,.85l.09,.39,.12,.28c.16,.36,.34,.71,.55,1.08,.2,.36,.43,.74,.69,1.13,.13,.19,.29,.42,.42,.59l.41,.54c.31,.55-.66,.2-.99,.13,.53,.42,1.05,.77,1.56,1.06,.51,.29,1.04,.51,1.4,.64,.4,.14,.81,.24,1.22,.26,.2,.01,.4,0,.6-.03,.19-.03,.31-.1,.47-.19-.01,.13-.15,.26-.28,.35,.23-.03,.52,.23,.54-.39l-.23,.16c-.27-.91,.98-1.82,1-2.29-.42,1.76,1.07,.47,.47,2.69,.17-.12,.36-.41,.31-.82,.23,.11,.33,.35,.1,.83,.87-.38,.5-1.01,1.23-1.07,.03,.3-.1,.43-.15,.78,.33-.62,.6-1.24,1.22-1.1,0,.18,.11,.4-.07,.43,.51-.14,.86-.61,1.21-1.01,.34-.39,.75-.76,1.09-.56,.07,1.33,.26,.36,.43,1.52,.08-.11,.16-.22,.26-.33-.04-.18-.09-.36-.15-.55,.08,0,.14-.04,.22-.11,.12-.07,.24-.16,.35-.24,.23-.16,.44-.28,.66-.1l-.36,.47,.95-.24-.56-.41c.48-.59-.11-1.41,.54-1.13-.12,.13,.47-.03,.79,.61h0c.21-.38,.41-.76,.8-.53,.14,.34,.08,1.24,.17,1.47,.12-.97,1.15-.43,1.27-1.47-.06,.25,.04,.83,.1,.94l.06-.79c.27,.19,.33,.3,.38,.77,.72,0-.5-1.35,.43-.92-.05,.07,0,.18-.1,.32,.89,.15,1.43-.85,2.25-.7,.56,1.01-.56,.47-.04,1.3,.52-.26,.97-.78,1.41-1.23,.43-.48,.87-.87,1.4-.97l-.23-.03c-.52-1.51,1.04,.38,1.21-.53-.07,.16,.23,.87,.19,.69,.78-.11,1.19-1.04,1.84-2.05l.1,.42c.57,.09,1.07-.44,1.56-.57-.12-.41,.13-.51-.35-.9,1.26,.52,1.65-.18,1.91-.89,.27-.71,.43-1.41,1.56-1.19-.1,.11,0,.51,.08,.43,.17-.36,.35-.69,.5-1.05-.57-.41-.4-.17-.95-.39-.2-.38-.25-.81-.08-1,.03,.65,.82,.75,1.26,.84-.18-.11-.31-.32-.48-.45,1.3,.39-.98-.97,.11-1l.26,.26c.03-.34-.19-.83,.07-1,.71,.39,.11,.46,.62,.89,.24-.37-.7-1.58,.15-1.42,.08,.28-.06,.49,0,.78,1,.22,.84,.02,1.14-.16h-.04l.78-.37-.32,.02c-1.43-1.59,.31-1.14-.53-2.46,.79,1.24,.59,.47,1.36,.96,.31-.04,.7-.17,.89,.03-.47-.66,.8-.28,.08-1.22,.27,.11,.19-.34,.82,.05,0-.53-.51-.11-.82-.31-.3-.54,.14-.78,.56-1.11,.41-.33,.8-.74,.31-1.46-.26-1.02-1.16-1.45-1.44-2.29,.52-.13,.98,.47,.98,.47,.53-.3,.52-.66,.28-1.12,.23,.13,.46,.1,.81,.04-.01-.35-1-.42-.5-.76,.31,.13,.8,.32,1.09,.54-.18-.45-.67-.92-.87-1.35,.52-.04,.73,.35,1.04,.55-.15-.5-.3-1.27-1.09-1.48l-.31,.25c-.02-.16,.7-.01,.83,.13,.58,.47-.35,.53-.64,.5l-.15-.3c-1.73,.05,.12,1.13-.1,1.7l-1.18-.47c.3,.24,.61,.5,.9,.76-.35,.05-1.04-.03-1.17-.32-.69,.23,.36,.43-.39,.59-.11,0-.17-.02-.21-.07l.27,.45c-.23-.14-.87-.17-.63-.34-.85,.42,.61,1.27-.37,1.23l-.06-.08c.11,.99,.85,.36,1.63,1.4-.76-.1-1.53-.23-2.28-.36l.82,.42c-.06,.08-.2,.22-.52,.05,.44,.56,.39,.1,.86,.51-.94,.09-.18,1.34-1.53,.79,.55,.46,.68-.16,.89,.5-1.47-.59-.02,.63-.86,.67-.65-.51-.09-.63-.92-.63,1.08,.89-.65,.53-.59,.94,.92,.59-.03,.85-.06,1.53-.26-.23-1.12,.52-1.76,.68l-.13-.13c.79,.79,.26,1.06,.16,1.52-.48-.46-.62-.69-.7-1.04l-.24,.27c.2,.3,.27,.52,.19,.78l-.53-.63c-.3,.35,0,1.4-.85,1.4,.48,.6,1.85,1.22,1.64,2.09-.3-.29-.79-.81-.76-1.06,0,.08,.07,.4-.14,.35l-.25-.71c-.42-.03,.27,.54,.05,.65-.38-.45-.41-.2-.69-.58,0-.08,.31,.05,.23-.19-.27,.1-.73,.04-1.1-.25,.23,.25,.51,.62,.4,.79-.36,.34-.58-.45-.98-.52,.16,.4-.33,.25,.18,.96-.12,.08-.39-.24-.57-.4,.03,.46-.89,.76-.14,1.38h.09s-.01,.04-.01,.07h0c-.12,.6-.58,.73-1.05,.81-.49,.06-.99,.04-1.27,.41l-.13-.27c-.3,.52-.91,.66-1,1.39-.14,.06-.54-.37-.61-.72-.27,.34-.19,.68-.88,.42,.18-.62-.28-.38,.23-.49-.54-.05-.79-.5-1.03,.45-.07-.78-.63-.79-.78-.52,.16,.15,.32,.29,.48,.42-.21,.2-.46,.17-.69,.18l-.15-.99c-.62-.46-.87,.15-1.19,.63-.3,.48-.65,.89-1.17-.07-.14,.73,.6,.41,.51,1.25-.49-.06-1.15-1.41-1.28-1.4-.64-.48-.4,1.5-1.09,1.19,.1,.35,.27,1.29-.23,1.66-.5-.12-.64-1.48-.37-1.77,.11-.03,.16,.08,.17,.2,.14-.13,.32-.3,.12-.67l-.04,.36c-.24-.36-.85-.3-.72-.89-.32,.35-.13,.59,.12,.76-.32-.25-.45-.24-.79-.23-.37,.03-.72,0-1.24-.1,.2,.13,.37,.58,.23,.57-.74-.02-.84,.19-.86,.45-.03,.26,.01,.58-.25,.74-.47-.44-.22-1.28-.67-.7-.43-.28-.28-.9-.23-1.22-.33,.79-.98-.25-1.23-.34l.18-.32c-.11,.19-.22,.21-.33,.22l.24,.68c-.16-.1-.28-.09-.31-.38-.09,.48,.28,1.16,.05,1.83-.24-.33-.6,.45-.72-.5,.62,.28-.12-.94,.34-1.13-.08,.12-.19,.13-.33,0-.03-.1,0-.2,.04-.25-.53-.83-.14,1.1-.77,1.05,.09-.53-.12-1.02-.21-.91,.23,.02,.1,.89-.17,1.29-.38-.43-.48,.29-.68,.23,.06,.07,.15,.14,.23,.2-.06,.26-.15,.38-.26,.44-.09,.06-.19,.07-.33,.14,.05-.41,.25-.25,.2-.44-.19,.45-.31,.18-.37-.13-.05-.3-.1-.66-.24-.38,.03-.09,.07-.18,.13-.29l.08-.15h0l-.04,.08c-.11,.18-.14,.21-.17,.24l-.02,.02h0l-.58,.43h0l.07-.05s-.05,.03-.05,.03c.01,0,.02-.02,.2-.1-.08,.03-.13,.06-.17,.08l-.05,.03h-.02l.58-.43h0s0,0,.04-.04c-.1,.09,.17-.11-.59,.46h-.02v.02h0l.23-.17h0s.03,0,.05-.01c.04-.02,.08-.04,.12-.07,.08-.06,.14-.12,.11-.07-.39,.44-.32,.26-.64,.77,.27-.47,.16-.37-.05-.31-.17,.11-.46,.08-.14-.12l.81-.22h0c.25-.07,.59-.12,.98-.14,.15,0,.08,0,.06,0h-.14l-.08,.02-.15,.02c-.1,0-.21,.01-.31,.01-.42,0-.84-.06-1.27-.19l-.06-3.02c-.34,.08-.71,.12-.95-.24l.1,.41c-.42,.57-.52-.17-.9-.06,.31-.51,.26-.78,.34-1.15-.21,.39-.51-.33-1.2,.64l.07-.85c-.37-.63-1.6,.96-2.06,.37,.55-.39,.56-.91,1.19-1.02-.18-.13-.27-.34-.52-.01,.12-.37-.98,.25-.8-.32-.24,.14-.66,.6-.83,.39,.06-.11,.19-.22,.19-.22-.19,.23-.57,.03-.82,.68,.32-.94-.06-1.24-.46-1.53-.39-.29-.81-.58-.42-1.34-.48-.23-1.02-.57-1.33-.9,.16-.09,.23-.18,.24-.08,.06-.82-1.6,.73-1.54-.25,.57-.86,.65,.02,.81-.38,1.53-1.2-.71-.55-.01-1.57l.16,.03c.38-.64-1.08-.34-1.24-.95,0,0,.17-.06,.26-.14-1.07,.12-1.71-.46-2.21-.91,.78-.13,.48,.08,1.15-.32-.21-.19-1.11,.57-1.52,.15,.32-.32,.51-.81,1.28-1.14,.06,.15,.14,.28,.22,.43,.9-.61-.25-.55-.16-.86l.45-.13c-.37-.61-1.51-.27-1.64-1.08l-.32,.17c-1.25-.14,.54-.52-.41-.75l1.13-.39c-.34-.2-1.33-.76-1.62-1.28,.91,.18,1.46,.69,2.03,.94-.04-.27-.26-.89-.85-.95,.13,.1,.43,.19,.27,.33-.97-.18-1.5-.61-1.54-1.2,2.27-.1,.47-1.56,2.26-1.98-.77-.97,.39-1.85,.48-2.89-1.83,.11,0-.32-1.82-.57-.07-.29-.03-.39,.09-.39,.39-.21,.82-.39,1.24-.56,.57-.05,.33,.33,.74,.4,.28-.49,.82-.04,1.38-.25-.65-.09-.86-.42-.54-.64l-.93,.19c-.37-.5,.05-.57,.46-.61,.41-.05,.81-.08,.5-.58l.46,.41c-.17-.47,.48-1.27-.69-2.23,.23,.02,.72,.15,.77,.36,.31-.37,.19-1,.15-1.6-.03-.59,.08-1.13,.66-1.2l.34,.31c-.02-.22-.54-.73-.04-.67,.15,.12,.33,.31,.4,.26-.09-.17-.37-.84,0-.88l.28,.46c1.04-.34-.13-1.91,.27-2.73,.98,.89,1.79,.66,2.17,.56l.12,.14c.89-.55,.58-2.04,1.17-3.05,.7,.41,1.17,.17,1.72-.03,.54-.22,1.06-.57,1.69-.42-.25-.15-.45-.93-.33-1.12,.33,.14,.23-1.11,.7,0h-.09c.66,1.02,.94,.53,1.3,.41l-.53-1.49c.91,.9,1.42,.5,1.93,.06,.51-.38,1.01-.78,1.5,.16,.15-.44,.43-.53,.6-.95l.14,.84c.69,.12,1.02,.18,1.79-.14l-.1,.63c.43,0,.35-2.48,.82-2.56l.21,1.26c.41-.02,.83,.21,1.23,.34,.41,.15,.79,.17,1.23-.39-.02,.18-.07,.55-.2,.59,.19,.03,.54,.26,.83,.26,.29,.03,.55-.16,.59-1.03-.12,1.13,.81,.23,1.37-.19l-.22,.81c.56-1,.64-1.28,1.24-1.43,.11,.14-.04,.68-.16,.43,.32,.53,.51-.69,.93-.13l-.32,.47c.41,.17,.45-.12,.86-.66,.38-.27,.77,.48,.59,1.2,.2-.42,.63-.92,.82-.62-.06,.28-.21,.42-.29,.48,.49,.76,1.42-.54,1.57,.45-.1,.26-.13,.4-.12,.49-.51-.28-.94-.48-.88-.52-.27,.72,.09,.99-.63,1.86,.53-.44,1.6-1.29,1.87-.78-.01,.08-.02,.15-.06,.27l-.08,.06c.06,.11,.17,.08,.31,0,.07,.17,.11,.29,.23,.36-.24,.58,.28,.56,.46,.7,.4-.75,.59-.47,.69-1.22,0,.07-.09,.07-.24,.02-.04,0-.08,0-.13,.03l.05-.06c-.15-.05-.32-.15-.54-.23,.37-.31,.7-.51,.71,.03,.37-.41,.76-.83,.96-1.01-.28,1.2-.09,2.04-.41,2.69,.83-.01,1.48,.67,2.85-.31,.29-.02-.1,.52-.2,.76-.19,.04-.28-.07-.47,.07,.56-.05,1,.67,1.82-.09,.07,.72-.91,.56-.24,.9l-.3,.18c-.09,1.09,.72,1,1.63,1,.91-.03,1.73,.19,1.33,1.49,.04-.17,.06-.25,.2-.38,.04,.26,.12,.48,.22,.69,.08,.22,.2,.42,.33,.61,.26,.38,.6,.71,.91,1.08,.53,.76,1.13,1.56,.66,2.7-.12,.58,.56,.37,1.18,.49l-.82,.4c.4,.05,.78,.11,1.16,.18,.47,.26,.02,.75-.35,1.2-.37,.46-.63,.86,.13,1.19l.58-.24c-.06,.36,.53,1.04-.17,1.08,.12,.02,.65,.03,.35,.2l-.47,.07c.32,.24,.63,.49,.9,.76-.31,.69-1.88,.06-1.93,.96,.2,.31,1.43,.94,1.74,.82,.02-.14,.28-.37,.75-.4l.27,.34c1.4,.04,2.85,.39,3.77-.62l-.89-.65,.66-.26,.07,.58c.62-.36,.04-.55-.35-.75,.36-.08,.6-.2,.73-.35-.46-.19-.9-.38-1.38-.54,.53-.14,1.12,.19,1.35-.3-.66-.24-1.17,.44-1.65-.02,.58-.39,1.11-.38,.51-.68,.35-.11,.59-.06,.77,.07-.48-.28-.33-.88-1.08-.92,.74-.49-.43-1.07,.86-1.34-.34-.04-1.16-.34-1.3-.62,1.68,.13-.22-1.16,1.44-1.52-1.49,.03-1.16-1.29-2.16-1.7,.12,0,.36-.02,.32,.07-.04-.45,.3-.73,.42-1.1-1.1,.43-1.63-.04-2.43-.01,.78-.97,1.37-.35,2.27-.98-.84,.45-1.26-.39-1.88,.14,.44-.69,.15-.46,.9-1.13-1.31,.67-.42-.2-1.37-.02,.31-.86,1.09-.85,.37-1.16,.21-.51,.96-.29,.96-.29Zm-12.83-8.02v-.02l.3,.08-.3-.07Zm-1.1-.49c.12,.09,.28,.17,.46,.25-.08,.28-.24,.54-.34,.48,.14-.15-.05-.42-.12-.72Zm-.45,6.25c-.18,.03-.15-.14-.09-.31,.07,.02,.15,.04,.27,.04l.06-.08c-.09,.13-.17,.26-.25,.34Z"/><path class="cls-1" d="M300.99,8.64s.06-.03,.09-.02c0-.08,.01-.15,.01-.21l-.18,.2,.08,.03Z"/><path class="cls-1" d="M303.13,43.34h-.03s.07,.03,.1,.07c-.03-.03-.05-.05-.08-.07Z"/><polygon class="cls-1" points="283.98 .37 284.03 .58 284.1 .37 283.98 .37"/><path class="cls-1" d="M309.63,41.48c.06,.04,.14,.07,.22,.08-.04-.03-.13-.06-.22-.08Z"/><path class="cls-1" d="M311.5,39.38l.48-.17c-.24,.05-.38,.11-.48,.17Z"/><path class="cls-1" d="M313.06,37.75c-.11-.1-.21-.16-.29-.22h0l.3,.22Z"/><path class="cls-1" d="M283.03,52.38s-.07,.01-.1,.03c-.3,.14-.06,.1,.1-.03Z"/><path class="cls-1" d="M292.89,49.51c-.09,.16-.19,.32-.29,.43,.19,.05,.33,.05,.29-.43Z"/><path class="cls-1" d="M272.76,46.41h.01s-.04-.04-.06-.06l.05,.06Z"/><path class="cls-1" d="M292.12,49.96c.19,.15,.34,.1,.47-.03-.15-.04-.33-.11-.47,.03Z"/><path class="cls-1" d="M316.43,28.67l.05-.1c-.06,0-.1-.02-.13-.03l.09,.13Z"/><path class="cls-1" d="M316.34,28.54l-.09-.13c0,.06,0,.1,.09,.13Z"/><path class="cls-1" d="M316.07,28.14l.19,.27c.01-.09,.05-.19-.19-.27Z"/><path class="cls-1" d="M315.53,31.53l.29,.11c-.06-.03-.15-.07-.29-.11Z"/><path class="cls-1" d="M315.38,32.43c.12-.19,.78-.35,.66-.7l-.23-.09c.41,.26-.88,.46-.43,.79Z"/><path class="cls-1" d="M310.65,34.36c.17-.16,.32-.32,.48-.49-.34-.02-.8-.07-.76-.36-1.2,.32,.74,.14,.28,.84Z"/><path class="cls-1" d="M309.33,35.87c.04-.36-.41-.23-.56-.34,.15,.33,.18,.41,.56,.34Z"/><path class="cls-1" d="M298.89,44.81l-.26-.72c-.19,.2,.11,.28,.26,.72Z"/><polygon class="cls-1" points="297.38 49.49 297.8 49.87 297.74 49.16 297.38 49.49"/><polygon class="cls-1" points="294.52 44.55 294.61 44.42 294.26 44.77 294.52 44.55"/><path class="cls-1" d="M275.52,38.91l-.63,.71c.24,0,1.02-.71,.63-.71Z"/><path class="cls-1" d="M269.93,31.01c.43-.23,.65-.56,.16-.61-.02,.23-.31,.54-.16,.61Z"/><polygon class="cls-1" points="283.36 8.46 283.3 8.82 283.54 8.45 283.36 8.46"/></g></g></svg>