<?xml version="1.0" encoding="UTF-8"?><svg id="Layer_1" xmlns="http://www.w3.org/2000/svg" viewBox="0 0 512 512"><defs><style>.cls-1{fill:#96b2c2;}.cls-2{opacity:.33;}</style></defs><g class="cls-2"><path class="cls-1" d="M512,253.53c0-56.76-17.95-109.26-48.38-152,13.71,265.78-115.77,290.11-115.77,290.11-19.21-207.47,29.29-301.13,69.3-339.98C387.81,27.5,353.1,9.8,315.11,.69c-107.03,96.36-137.36,252.85-137.36,252.85C145.46,89.65,199.75,.13,199.83,0,85.47,25.99,0,129.62,0,253.53c0,80.5,36.07,152.44,92.7,200.09-32.32-181.43-1.69-232.9-1.69-232.9,52.72,260.65,80.79,278.22,80.8,278.22,18.44,6.52,37.83,10.97,57.91,13.05-31.08-225.9,51.8-324.07,51.8-324.07-9.25,164.9,23.76,262.27,51.32,313.51,103.84-33.12,179.16-131.58,179.16-247.91Z"/></g></svg>