<?xml version="1.0" encoding="UTF-8"?><svg id="Layer_1" xmlns="http://www.w3.org/2000/svg" viewBox="0 0 512 512"><defs><style>.cls-1,.cls-2,.cls-3,.cls-4,.cls-5{stroke:#000;stroke-miterlimit:10;}.cls-1,.cls-6,.cls-5{fill:#fff;}.cls-1,.cls-3,.cls-4{stroke-width:5px;}.cls-2,.cls-3{fill:none;}.cls-2,.cls-5{stroke-width:6px;}</style></defs><g id="background"><rect width="512" height="512"/><path class="cls-6" d="M443.19,281.96l-186.98,186.98L69.19,281.96C-75,137.73,111.98-49.25,256.21,94.98c143.53-143.53,330.51,43.45,186.98,186.98Z"/></g><g id="dinasour"><path class="cls-1" d="M371.1,233.76l34.96,11.73s-13.62,.4-24.36,16.45c0,0,20.97,21.68,30.96,20.78,0,0-2.12,9.74-19.09,16.92,0,0,7.01,13.77,19.09,12.87l-15.26,16.74c-29.49-159.25-82.64-166.03-82.64-166.03-5.83-30.4-17.91-34.15-17.91-34.15-14.99,9.58-15.41,31.23-15.41,31.23,0,0-16.42-4.37-49.5-.08,0,0,.74-18.25-18.58-34.35,0,0-14.49,11.27-12.88,38.11,0,0-30.06,23.08-22.01,49.91-4.12,5.96-12.75,7.11-19.95,7.95s-14.86,1.17-20.84,5.26c-6.65,4.56-10.37,13.32-18.09,15.69-3.23,.99-6.76,.68-9.96,1.74-7.17,2.37-10.64,10.64-17.11,14.53-6.82,4.1-15.66,2.65-23.05,5.59-5.2,2.07-9.46,6.36-11.49,11.57,0,0-20.65-3.84,0,34.26,0,0,4.91,5.19,9.08,.82,0,0,64.58,10.73,111.87-3.97,2.96,1.71-2.13,31.45-9.72,55.64-1.79,5.69-3.65,10.52-5.95,14.99"/><path d="M179.07,304.91c13.07-4.37,25.89-9.88,37.88-16.72-5.59,4.16-11.44,8-17.46,11.52-6.08,3.57-12.2,6.86-18.62,9.86l-1.8-4.67h0Z"/><path d="M199.65,261.97c-34.11,20.96-78.63,33.37-118.69,32.77-3.2-.09-6.4-.14-9.59-.29l.15-1.09c.05-.46-.18-1.23-.31-1.74-1.51-4.66-4.98-8.52-8.35-11.99,.89,.63,2.6,1.95,3.43,2.65,3.03,2.69,5.98,5.8,7.26,9.76,.11,.42,.22,.73,.26,1.32l-1.13-1.15c43.79-1.99,86.6-13.39,126.96-30.23h0Z"/><path d="M166.82,229.02c10.92,5.22,21.39,21.26,14.34,32.95-.12-1.66-.27-3.19-.54-4.67-2.08-10.55-8.71-18.93-13.8-28.28h0Z"/><path d="M126.41,247.85c7.34,6.9,11.93,20.14,8.24,29.82-3.42-9.96-6.96-19.32-8.24-29.82h0Z"/><path d="M90.72,265.11c4.4,3.4,6.32,9.05,5.73,14.46-.27,1.81-.87,3.69-2.2,5.16-.72-1.84-1.25-3.35-1.72-4.89-1.43-4.85-2.51-9.53-1.81-14.72h0Z"/><ellipse cx="62.87" cy="296.39" rx="1.69" ry="4.24"/><ellipse cx="55.92" cy="286.75" rx="2.05" ry="4.03"/><path class="cls-3" d="M288.72,137.15s-6.44-10.94-17.86-19.5c0,0,4.14,22.2-.62,40.28"/><path class="cls-3" d="M237.55,160.62s-5.23-18.08-2.86-34.74c0,0-4.02,6.52-9.19,15.8"/><path class="cls-3" d="M261.8,158.36s-5.7-7.88-7.6-21.68c0,0-6.19,8.62-8.57,21.68"/><path class="cls-3" d="M335.52,174.35s13.85-.97,23.84-15.98c0,0-1.95,25.09-9.54,35.26"/><path class="cls-3" d="M352.89,198.92l33.6,3.44s-14.55,9.27-18.51,24.01"/><path d="M322.97,204.16c-5.98-6.52-14.15-13.47-23.04-14.24-4.37-.31-8.4,1.49-11.93,4.1-3.66,2.76-6.92,6.37-10.2,10.13,1.48-4.78,3.95-9.3,7.61-13.09,13.32-13.71,32.3-2.28,37.57,13.09h0Z"/><path d="M227.44,205.52c-.78-2.23-2.65-3.84-4.34-5.39-1.76-1.5-3.62-2.84-5.56-3.99-7.69-4.75-16.61-5.64-24.18-.24-3.66,2.55-6.93,5.97-10.18,9.62,1.45-4.68,3.99-9.08,7.71-12.68,8.38-8,20.51-7.06,28.93,.1,2.92,2.45,5.44,5.39,6.95,8.89,.46,1.16,.89,2.44,.69,3.68h0Z"/><ellipse class="cls-4" cx="317.15" cy="274.91" rx="16.77" ry="14.02"/><path class="cls-1" d="M71.15,315.11s0,16.25,2.77,23.86l-7.61-5.53s-2.77,7.26,0,17.63c0,0-10.03-22-8.3-40.56"/><path d="M222.12,196.92c2.54-1.21,5.17-2.74,7.17-4.78,.65-.7,1.27-1.49,1.46-2.5,.42,3.22-1.85,6.18-3.57,8.73-.65,.87-1.28,1.69-2.06,2.55l-3-4h0Z"/><path d="M217.16,192.85c1.7-.62,3.38-2.4,3.93-4.83,1.11,2.23,1.24,5.32-.22,8.19l-3.7-3.36h0Z"/><path d="M225.14,201.06c2.33-1.37,4.8-.46,7.16-1.37-.66,1.8-3.45,3.3-3.75,5.02l-3.41-3.66h0Z"/><path d="M311.77,188.92l.32,.06-1.88,1.59c1.27-1.24,2.19-3.23,2.24-5.5,1.44,1.75,2.38,4.25,2.27,7.03l-.02,.53-1.86,1.06-.29,.16-.79-4.94h0Z"/><path d="M314.52,192.75c1.29-.78,3.88-2.35,5.16-3.14,1.62-1.04,3.19-2.19,3.98-4.09,.05,3.2-2.28,5.9-3.98,8.4l-1.76,2.5-3.4-3.67h0Z"/><path d="M318.65,196.23c1.73-.21,3.48-.2,5.14,.07,.49,.06,.96,.13,1.43-.15-.29,1.07-1.6,1.61-2.29,2.35-.75,.68-1.41,1.41-1.98,2.18l-2.29-4.44h0Z"/><path d="M209.19,163.38s-.59-11.29,4.25-18.03c0,0,6.45,7.95,7.7,15.27l-11.95,2.77Z"/><path d="M296.87,145.35s-6.3,10.7-6.6,18.03h14.08l-7.48-18.03Z"/></g><g id="bowknot"><path class="cls-2" d="M178.53,323.16s77.25,34.33,218.46,0"/><path class="cls-5" d="M241.69,350.75s3.39,27.1-9.79,50.03l11.13-8.22,1.2,16.95s11.13-25.26,9.59-58.77"/><path class="cls-5" d="M276.35,349.44s-3.39,27.1,9.79,50.03l-11.13-8.22-1.2,16.95s-11.13-25.26-9.59-58.77"/><path class="cls-5" d="M259.61,336.08s-65.03,57.53-54.19,0c-10.84-57.53,54.19,0,54.19,0Z"/><path class="cls-5" d="M259.61,336.08s65.03,57.53,54.19,0c10.84-57.53-54.19,0-54.19,0Z"/><circle class="cls-5" cx="258.58" cy="337.08" r="13.67"/></g></svg>