<?xml version="1.0" encoding="UTF-8"?><svg id="Layer_1" xmlns="http://www.w3.org/2000/svg" viewBox="0 0 512 512"><defs><style>.cls-1{fill:none;}.cls-2{fill:#f2f2f2;}.cls-3{fill:#030b3d;}.cls-4{fill:#f0f2dc;}.cls-5{fill:#f2cb05;}.cls-6{fill:#f2b9b3;}.cls-7{fill:#ff2451;}.cls-8{fill:#d90416;}.cls-9{fill:#d5b4bc;}.cls-10{fill:#0d6108;}.cls-11,.cls-12{fill:#4aa20d;}.cls-13{font-size:33.25px;opacity:.73;}.cls-13,.cls-12,.cls-14,.cls-15{stroke-miterlimit:10;}.cls-13,.cls-14,.cls-15{fill:#2354db;font-family:MyriadPro-Regular, 'Myriad Pro';stroke:#2354db;}.cls-12{stroke:#0d6108;}.cls-14{font-size:51px;opacity:.87;}.cls-15{font-size:24.85px;}.cls-16{fill:#bde3f2;opacity:.71;}</style></defs><path class="cls-3" d="M0,512H512V0H0V512ZM20.82,226.9l-2.67-.83-2.2,1.72-.03-2.79-2.32-1.56,2.65-.89,.76-2.69,1.67,2.24,2.79-.1-1.62,2.28,.96,2.62ZM465.16,77.01l2.3,1.08,2.19-1.29-.31,2.52,1.9,1.69-2.5,.48-1.02,2.33-1.23-2.22-2.53-.25,1.74-1.86-.55-2.48Zm-9.48,164.91l1.18-2.42,1.2,2.41,2.67,.38-1.92,1.89,.47,2.66-2.39-1.25-2.38,1.26,.45-2.66-1.94-1.88,2.67-.4ZM402.67,22.74l.88-4.46,3,3.42,4.52-.54-2.32,3.91,1.91,4.13-4.44-1-3.34,3.09-.42-4.53-3.97-2.22,4.18-1.8Zm-41.28,97.36l.14-1.99,1.49,1.32,1.93-.48-.79,1.83,1.06,1.69-1.98-.19-1.28,1.53-.43-1.94-1.85-.75,1.72-1.01Zm-67.18-74.26l.88-4.48,3.02,3.42,4.53-.54-2.32,3.93,1.92,4.14-4.45-1-3.35,3.1-.43-4.54-3.99-2.22,4.19-1.81Zm-76,38.06l.3-3.51,2.6,2.37,3.43-.8-1.45,3.21,1.82,3.01-3.5-.39-2.3,2.66-.71-3.45-3.24-1.37,3.06-1.74ZM145.83,30.37l3.93-7.33,3.43,7.58,8.19,1.48-6.15,5.6,1.13,8.24-7.23-4.12-7.49,3.62,1.68-8.15-5.76-6.01,8.27-.92ZM77.18,120.93l3.24,2.32,3.75-1.35-1.21,3.8,2.44,3.15-3.98,.02-2.24,3.3-1.25-3.78-3.83-1.11,3.21-2.36-.13-3.98ZM15.86,52.25l.09-2.93,2.27,1.85,2.81-.82-1.06,2.73,1.65,2.42-2.93-.16-1.79,2.32-.75-2.83-2.76-.99,2.46-1.59Z"/><polygon class="cls-2" points="141.63 45.44 149.12 41.82 156.35 45.94 155.22 37.69 161.37 32.09 153.19 30.62 149.76 23.03 145.83 30.37 137.56 31.28 143.31 37.29 141.63 45.44"/><polygon class="cls-2" points="219.11 90.46 221.41 87.8 224.91 88.19 223.09 85.18 224.54 81.97 221.11 82.77 218.51 80.4 218.21 83.91 215.16 85.65 218.4 87.02 219.11 90.46"/><polygon class="cls-2" points="294.44 54.42 297.79 51.32 302.24 52.31 300.32 48.17 302.64 44.25 298.11 44.79 295.1 41.37 294.21 45.84 290.03 47.65 294.01 49.88 294.44 54.42"/><polygon class="cls-2" points="77.92 128.38 79.17 132.17 81.41 128.87 85.4 128.85 82.95 125.7 84.16 121.9 80.41 123.25 77.18 120.93 77.3 124.91 74.09 127.27 77.92 128.38"/><polygon class="cls-2" points="16.9 57.66 18.69 55.34 21.62 55.5 19.97 53.08 21.03 50.35 18.22 51.17 15.94 49.32 15.86 52.25 13.39 53.84 16.15 54.83 16.9 57.66"/><polygon class="cls-2" points="361.95 123.8 363.23 122.28 365.22 122.47 364.16 120.78 364.96 118.95 363.02 119.43 361.53 118.11 361.39 120.1 359.67 121.11 361.52 121.86 361.95 123.8"/><polygon class="cls-2" points="402.88 31.28 406.22 28.2 410.66 29.19 408.75 25.07 411.07 21.15 406.56 21.69 403.56 18.28 402.67 22.74 398.49 24.54 402.46 26.76 402.88 31.28"/><polygon class="cls-2" points="466.5 81.6 467.73 83.82 468.75 81.49 471.25 81.01 469.35 79.32 469.66 76.8 467.47 78.09 465.16 77.01 465.71 79.49 463.97 81.35 466.5 81.6"/><polygon class="cls-2" points="18.69 222.1 17.02 219.86 16.26 222.55 13.61 223.44 15.93 225 15.96 227.79 18.16 226.07 20.82 226.9 19.86 224.28 21.48 222 18.69 222.1"/><polygon class="cls-2" points="454.51 246.85 456.9 245.59 459.29 246.83 458.82 244.18 460.75 242.29 458.08 241.91 456.87 239.49 455.69 241.92 453.02 242.32 454.96 244.19 454.51 246.85"/><polygon class="cls-4" points="96.12 266.85 93.37 264.12 89.56 264.85 91.31 261.38 89.44 257.99 93.27 258.58 95.93 255.75 96.55 259.58 100.05 261.23 96.61 263.01 96.12 266.85"/><g><path class="cls-7" d="M204.9,166.41c-5.69-2.64-12.69-6.95-17.12-13.51,0,0,1.98,15.76,5.92,26.99,3.5-5.25,7.24-9.78,11.2-13.48Z"/><path class="cls-7" d="M137.56,281.85s7.09,11.49,16.65,15.79l-19.76,11.99s6.52,5.19,16.33,7.75c1.65-10.43,4.75-28.21,9.49-48.31l-22.71,12.78Z"/><path class="cls-7" d="M166.49,188.83l12.75,19.02c3.47-8.35,7.26-16.18,11.4-23.1l-24.15,4.08Z"/><path class="cls-7" d="M149.82,222.22s12.02-1.61,19.77,12.44c0,0-6.37,14.44-25.38,17.78,0,0,4.24,10.22,16.28,15.6,4.32-18.17,9.97-38.08,17.06-56.03l-27.74,10.2Z"/><path class="cls-7" d="M278.87,152c-2.14-9.55-7.2-16.73-7.2-16.73-.38,6.9-2.81,12.55-5.16,16.5,3.83-.29,8.04-.3,12.37,.24Z"/><path class="cls-8" d="M417.78,272s3.56,17.78-3.56,28.44l7.11-7.11s3.56,7.11,0,14.22,10.67-3.56,7.11-39.11l-10.67,3.56Z"/><path class="cls-12" d="M435.56,250.67c-1.02-2.05-2.65-4.17-5.1-4.43-.84-.09-1.69,.06-2.47,.37-.05,.02-.95,.43-.92,.48-3.02-5.83-8.98-10.03-15.48-10.91-3.1-.42-6.36-.15-9.27-1.31-4.79-1.92-7.35-7.18-11.66-10-3.73-2.45-8.43-2.86-12.5-4.68-6.11-2.73-10.53-8.46-16.72-11-5.32-2.18-11.41-1.77-16.79-3.79-4.68-1.76-8.5-4.68-12.19-8.06,0-32-17.78-39.11-17.78-39.11-4.72-42.5-14.15-30.12-19.95-17.01-2.93,6.63-4.94,13.45-4.94,13.45-.66-.26-1.33-.47-1.99-.69-2.94-.99-5.94-1.6-8.91-1.97-4.32-.54-8.54-.53-12.37-.24-2.9,.22-5.59,.58-7.87,1-4.83,.88-7.97,1.91-7.97,1.91-1.89-7.54-3.74-13.01-5.54-16.89-11.76-25.42-21.13,18.67-21.13,18.67-6.9,.92-13.25,4.5-19.1,9.96-3.96,3.7-13.26,16.67-14.26,18.34-4.14,6.92-7.93,14.75-11.4,23.1-.57,1.37-14.42,42.03-18.74,60.2-.08,.34-.16,.68-.24,1.02-4.74,20.1-9.72,49.76-9.82,50.4-.25,1.62,17.24,7.47,18.59,7.46,49.96-.45,177.63-1.6,177.63-1.6-8.82-5.3-16.05-47.59-14.27-53.2,39.11,10.67,88.93,3.42,88.93,3.42,3.56,3.56,7.11,0,7.11,0,10.67-10.67,7.11-24.89,7.11-24.89Z"/><path class="cls-12" d="M294.72,141.22c-1.52-6.81-4.09-14.75-8.5-22.11,0,0,1.76,21.1,1.56,34.86,.67,.23,1.34,.43,1.99,.69,0,0,2.01-6.82,4.94-13.45Z"/><path class="cls-12" d="M258.63,152.59c-3.31-15.24-.86-30.09-.86-30.09-5.88,4.41-9.91,10.02-12.65,15.11,1.8,3.89,3.65,9.35,5.54,16.89,0,0,3.14-1.03,7.97-1.91Z"/><g><path class="cls-11" d="M332.4,272.13c-10.62-3.69-20.95-5.19-31.87-11.06"/><path class="cls-10" d="M332.24,272.6c-10.55-3.77-21.86-5.92-31.7-11.53,10.05,5.33,21.3,7.1,32.03,10.59l-.33,.94h0Z"/></g><ellipse class="cls-6" cx="214.22" cy="247.11" rx="11.56" ry="10.67"/><g id="nose"><ellipse class="cls-10" cx="430.22" cy="256" rx="1.78" ry="3.56"/><ellipse class="cls-10" cx="424.89" cy="263.11" rx="1.78" ry="3.56"/><g id="nose-2"><path class="cls-10" d="M343.11,208.04c-7.12,6.26-12.45,14.91-13.82,24.37-.25,1.18-.28,2.87-.4,4.08-.32-11.06,5.54-21.79,14.22-28.44h0Z"/><path class="cls-10" d="M375.11,222.26c-4.24,7.61-6.69,16.19-7.11,24.89-.26-8.74,2.27-17.61,7.11-24.89h0Z"/><path class="cls-10" d="M403.56,236.48c-1.44,5.8-3.08,11.82-3.56,17.78-.19-6.08,1.45-12.12,3.56-17.78h0Z"/><path class="cls-10" d="M314.67,236.42c23.95,11.87,50.02,19.3,76.46,22.98,8.83,1.17,17.74,1.78,26.65,1.85-.12-2.16,1.49-5.09,2.97-6.99,1.6-1.98,3.75-3.74,5.92-4.98-2.19,1.35-4.28,3-5.88,5.02-1.59,2.02-2.81,4.48-3.02,7.05-8.91-.03-17.83-.61-26.67-1.75-26.45-3.55-52.61-11.19-76.44-23.16h0Z"/></g></g><g id="right"><path class="cls-10" d="M215.81,180.74c8.79,5.85,19.74,9.87,30.04,5.55,3.3-1.28,6.31-3.27,9.07-5.55-1.24,1.3-2.62,2.47-4.06,3.56-11.33,8.3-24.94,4.88-35.05-3.56h0Z"/><path class="cls-10" d="M220.96,184.44c-2.07,1.38-4.37,2.35-6.74,2.84,2.28-.82,4.37-2.07,6.13-3.64l.61,.79h0Z"/><path class="cls-10" d="M225.32,186.56c-1.21,2.49-2.82,4.74-4.75,6.65,1.68-2.13,2.97-4.52,3.82-7.03l.92,.38h0Z"/><path class="cls-10" d="M232.73,188.43c-.45,3.56-1.42,7.03-2.86,10.27,1.13-3.36,1.75-6.86,1.86-10.35l1,.08h0Z"/><path class="cls-10" d="M238.75,188.77c.49,3.75,.2,7.53,2.92,10.51-1.32-1.31-2.31-2.98-2.83-4.82-.52-1.84-.55-3.75-1.06-5.45l.97-.24h0Z"/><path class="cls-10" d="M244.9,187.58c1.51,1.73,3.47,4.88,5.39,6.06-2.08-.96-4.4-3.85-6.13-5.39l.74-.67h0Z"/><path class="cls-10" d="M251.17,183.85c1.75,1.31,3.75,2.33,5.9,2.99-2.22-.34-4.41-1.06-6.43-2.14l.53-.85h0Z"/></g><g id="left"><path class="cls-10" d="M292.26,180.74c12.03,7.15,25.44,7.79,37.33,0-1.36,.96-2.66,2.05-4.13,2.84-10.39,6.19-23.8,4.38-33.21-2.84h0Z"/><path class="cls-10" d="M298.19,184.32c-1.35,1.57-3.02,2.82-4.83,3.66,1.65-1.13,3.03-2.6,4.03-4.25l.81,.59h0Z"/><path class="cls-10" d="M304.26,186.39c-.43,2.83-2.17,5.31-4.51,6.66,2.16-1.62,3.45-4.21,3.52-6.75l1,.09h0Z"/><path class="cls-10" d="M311.19,187.54c.48,3.11,.37,6.28-.28,9.3,.32-3.07,.07-6.17-.7-9.1l.98-.2h0Z"/><path class="cls-10" d="M317.48,186.55c.58,3.37,1.29,7.21,3.76,9.78-2.7-2.3-3.86-6.26-4.75-9.63l.99-.15h0Z"/><path class="cls-10" d="M322.08,185.04l2.22,2.63c.74,.82,1.41,1.91,2.61,2-1.2,.1-2.13-.94-2.97-1.65l-2.58-2.28,.71-.7h0Z"/><path class="cls-10" d="M326.81,182.58c1.69,2.24,4.33,3.86,7.23,4.34-2.94-.15-5.87-1.47-7.99-3.69l.76-.65h0Z"/></g></g><path class="cls-16" d="M430.22,256.37c2.84-2.34,5.26-4.79,6.76-7.49,.63-.88,1.74-1.31,2.89-1.37,2.3-.12,4.27,1.66,4.39,3.96,.12,2.3-1.69,3.66-3.96,4.39-2.99,.68-6.48,.67-10.08,.51Z"/><g><path class="cls-1" d="M512,392.7v-79.81H0v79.81c168.17-41.22,343.83-41.22,512,0Z"/><path class="cls-9" d="M0,392.7v119.3H512v-119.3c-168.17-41.22-343.83-41.22-512,0Z"/></g><path class="cls-4" d="M0,402.08c167.23-48.42,344.77-48.42,512,0v-54.28c-74-18.79-227.15-47.72-355.96-28.59-1.11,.11-2.22,.23-3.32,.35-6.8,.71-18.15,2.06-26,3.13-1.06,.14-2.12,.29-3.18,.43-50.06,6.82-93.41,17.04-123.54,25.24v53.71Z"/><g id="flower"><path class="cls-5" d="M317.11,380.45c-.31,.54-.76,1-1.34,1.34-.59,.34-1.22,.5-1.84,.5,.31,.54,.49,1.16,.49,1.84s-.18,1.29-.5,1.84c-.62,0-1.23-.16-1.82-.5-.57-.34-1.03-.79-1.34-1.34-.31,.54-.76,1-1.34,1.34-.59,.34-1.22,.5-1.84,.5-.32-.54-.5-1.16-.5-1.84s.18-1.29,.49-1.84c-.62,0-1.25-.16-1.82-.5-.57-.34-1.03-.79-1.34-1.34,.31-.54,.76-1,1.34-1.34,.57-.34,1.21-.5,1.82-.5-.31-.53-.49-1.16-.49-1.82s.18-1.31,.5-1.84c.63,0,1.26,.15,1.84,.49,.57,.34,1.03,.79,1.34,1.34,.31-.54,.76-1,1.34-1.34,.57-.34,1.19-.49,1.82-.49h.01c.31,.53,.49,1.16,.49,1.84s-.18,1.29-.49,1.82c.62,0,1.25,.16,1.84,.5,.57,.34,1.03,.79,1.34,1.34Z"/><path class="cls-5" d="M378.28,414.83c-.34,.59-.84,1.09-1.46,1.46-.64,.37-1.33,.55-2.01,.55,.34,.59,.53,1.27,.53,2.01s-.19,1.41-.55,2.01c-.67,0-1.35-.18-1.99-.55-.63-.37-1.12-.87-1.46-1.46-.34,.59-.84,1.09-1.46,1.46-.64,.37-1.33,.55-2.01,.55-.35-.59-.55-1.27-.55-2.01s.19-1.41,.53-2.01c-.67,0-1.37-.18-1.99-.55-.63-.37-1.12-.87-1.46-1.46,.34-.59,.84-1.09,1.46-1.46,.63-.37,1.32-.55,1.99-.55-.34-.58-.53-1.27-.53-1.99s.19-1.43,.55-2.01c.69,0,1.38,.16,2.01,.53,.63,.37,1.12,.87,1.46,1.46,.34-.59,.84-1.09,1.46-1.46,.63-.37,1.3-.53,1.99-.53h.02c.34,.58,.53,1.27,.53,2.01s-.19,1.41-.53,1.99c.67,0,1.37,.18,2.01,.55,.63,.37,1.12,.87,1.46,1.46Z"/><path class="cls-5" d="M368.48,472.58c-.33,.58-.82,1.07-1.44,1.44-.63,.36-1.31,.54-1.97,.54,.33,.58,.52,1.25,.52,1.97s-.19,1.39-.54,1.97c-.66,0-1.33-.17-1.96-.54-.62-.36-1.1-.85-1.44-1.44-.33,.58-.82,1.07-1.44,1.44-.63,.36-1.31,.54-1.97,.54-.35-.58-.54-1.25-.54-1.97s.19-1.39,.52-1.97c-.66,0-1.34-.17-1.96-.54-.62-.36-1.1-.85-1.44-1.44,.33-.58,.82-1.07,1.44-1.44,.62-.36,1.29-.54,1.96-.54-.33-.57-.52-1.25-.52-1.96s.19-1.4,.54-1.97c.68,0,1.36,.16,1.97,.52,.62,.36,1.1,.85,1.44,1.44,.33-.58,.82-1.07,1.44-1.44,.62-.36,1.28-.52,1.96-.52h.02c.33,.57,.52,1.25,.52,1.97s-.19,1.39-.52,1.96c.66,0,1.34,.17,1.97,.54,.62,.36,1.1,.85,1.44,1.44Z"/><path class="cls-5" d="M312.56,437.53c-.27,.48-.67,.88-1.17,1.17-.52,.3-1.07,.44-1.61,.44,.27,.48,.43,1.02,.43,1.61s-.15,1.14-.44,1.61c-.54,0-1.08-.14-1.6-.44-.5-.3-.9-.7-1.17-1.17-.27,.48-.67,.88-1.17,1.17-.52,.3-1.07,.44-1.61,.44-.28-.48-.44-1.02-.44-1.61s.15-1.14,.43-1.61c-.54,0-1.1-.14-1.6-.44-.5-.3-.9-.7-1.17-1.17,.27-.48,.67-.88,1.17-1.17,.5-.3,1.06-.44,1.6-.44-.27-.46-.43-1.02-.43-1.6s.15-1.15,.44-1.61c.55,0,1.11,.13,1.61,.43,.5,.3,.9,.7,1.17,1.17,.27-.48,.67-.88,1.17-1.17,.5-.3,1.04-.43,1.6-.43h.01c.27,.46,.43,1.02,.43,1.61s-.15,1.14-.43,1.6c.54,0,1.1,.14,1.61,.44,.5,.3,.9,.7,1.17,1.17Z"/><path class="cls-5" d="M249.91,433.11c-.42,.74-1.04,1.36-1.82,1.82-.8,.46-1.66,.68-2.5,.68,.42,.74,.66,1.58,.66,2.5s-.24,1.76-.68,2.5c-.84,0-1.68-.22-2.48-.68-.78-.46-1.4-1.08-1.82-1.82-.42,.74-1.04,1.36-1.82,1.82-.8,.46-1.66,.68-2.5,.68-.44-.74-.68-1.58-.68-2.5s.24-1.76,.66-2.5c-.84,0-1.7-.22-2.48-.68-.78-.46-1.4-1.08-1.82-1.82,.42-.74,1.04-1.36,1.82-1.82,.78-.46,1.64-.68,2.48-.68-.42-.72-.66-1.58-.66-2.48s.24-1.78,.68-2.5c.86,0,1.72,.2,2.5,.66,.78,.46,1.4,1.08,1.82,1.82,.42-.74,1.04-1.36,1.82-1.82,.78-.46,1.62-.66,2.48-.66h.02c.42,.72,.66,1.58,.66,2.5s-.24,1.76-.66,2.48c.84,0,1.7,.22,2.5,.68,.78,.46,1.4,1.08,1.82,1.82Z"/><path class="cls-5" d="M268.44,484.85c-.3,.53-.75,.98-1.31,1.31-.58,.33-1.19,.49-1.8,.49,.3,.53,.48,1.14,.48,1.8s-.17,1.27-.49,1.8c-.6,0-1.21-.16-1.79-.49-.56-.33-1.01-.78-1.31-1.31-.3,.53-.75,.98-1.31,1.31-.58,.33-1.19,.49-1.8,.49-.32-.53-.49-1.14-.49-1.8s.17-1.27,.48-1.8c-.6,0-1.22-.16-1.79-.49-.56-.33-1.01-.78-1.31-1.31,.3-.53,.75-.98,1.31-1.31,.56-.33,1.18-.49,1.79-.49-.3-.52-.48-1.14-.48-1.79s.17-1.28,.49-1.8c.62,0,1.24,.14,1.8,.48,.56,.33,1.01,.78,1.31,1.31,.3-.53,.75-.98,1.31-1.31,.56-.33,1.17-.48,1.79-.48h.01c.3,.52,.48,1.14,.48,1.8s-.17,1.27-.48,1.79c.6,0,1.22,.16,1.8,.49,.56,.33,1.01,.78,1.31,1.31Z"/><path class="cls-5" d="M195.36,383.41c-.2,.35-.49,.64-.86,.86-.38,.22-.78,.32-1.18,.32,.2,.35,.31,.75,.31,1.18s-.11,.83-.32,1.18c-.4,0-.79-.1-1.17-.32-.37-.22-.66-.51-.86-.86-.2,.35-.49,.64-.86,.86-.38,.22-.78,.32-1.18,.32-.21-.35-.32-.75-.32-1.18s.11-.83,.31-1.18c-.4,0-.8-.1-1.17-.32-.37-.22-.66-.51-.86-.86,.2-.35,.49-.64,.86-.86,.37-.22,.77-.32,1.17-.32-.2-.34-.31-.75-.31-1.17s.11-.84,.32-1.18c.41,0,.81,.09,1.18,.31,.37,.22,.66,.51,.86,.86,.2-.35,.49-.64,.86-.86,.37-.22,.76-.31,1.17-.31h0c.2,.34,.31,.75,.31,1.18s-.11,.83-.31,1.17c.4,0,.8,.1,1.18,.32,.37,.22,.66,.51,.86,.86Z"/><path class="cls-5" d="M153.9,431.65c-.2,.35-.49,.64-.86,.86-.38,.22-.78,.32-1.18,.32,.2,.35,.31,.75,.31,1.18s-.11,.83-.32,1.18c-.4,0-.79-.1-1.17-.32-.37-.22-.66-.51-.86-.86-.2,.35-.49,.64-.86,.86-.38,.22-.78,.32-1.18,.32-.21-.35-.32-.75-.32-1.18s.11-.83,.31-1.18c-.4,0-.8-.1-1.17-.32-.37-.22-.66-.51-.86-.86,.2-.35,.49-.64,.86-.86,.37-.22,.77-.32,1.17-.32-.2-.34-.31-.75-.31-1.17s.11-.84,.32-1.18c.41,0,.81,.09,1.18,.31,.37,.22,.66,.51,.86,.86,.2-.35,.49-.64,.86-.86,.37-.22,.76-.31,1.17-.31h0c.2,.34,.31,.75,.31,1.18s-.11,.83-.31,1.17c.4,0,.8,.1,1.18,.32,.37,.22,.66,.51,.86,.86Z"/><path class="cls-5" d="M180.77,466.78c-.26,.46-.64,.84-1.13,1.13-.5,.29-1.03,.42-1.55,.42,.26,.46,.41,.98,.41,1.55s-.15,1.09-.42,1.55c-.52,0-1.04-.14-1.54-.42-.48-.29-.87-.67-1.13-1.13-.26,.46-.64,.84-1.13,1.13-.5,.29-1.03,.42-1.55,.42-.27-.46-.42-.98-.42-1.55s.15-1.09,.41-1.55c-.52,0-1.05-.14-1.54-.42-.48-.29-.87-.67-1.13-1.13,.26-.46,.64-.84,1.13-1.13,.48-.29,1.02-.42,1.54-.42-.26-.45-.41-.98-.41-1.54s.15-1.1,.42-1.55c.53,0,1.07,.12,1.55,.41,.48,.29,.87,.67,1.13,1.13,.26-.46,.64-.84,1.13-1.13,.48-.29,1-.41,1.54-.41h.01c.26,.45,.41,.98,.41,1.55s-.15,1.09-.41,1.54c.52,0,1.05,.14,1.55,.42,.48,.29,.87,.67,1.13,1.13Z"/><path class="cls-5" d="M106.81,432.56c-.31,.55-.78,1.02-1.36,1.36-.6,.34-1.24,.51-1.87,.51,.31,.55,.49,1.18,.49,1.87s-.18,1.32-.51,1.87c-.63,0-1.26-.16-1.86-.51-.58-.35-1.05-.81-1.36-1.36-.31,.55-.78,1.02-1.36,1.36-.6,.34-1.24,.51-1.87,.51-.33-.55-.51-1.18-.51-1.87s.18-1.32,.49-1.87c-.63,0-1.27-.16-1.86-.51-.58-.35-1.05-.81-1.36-1.36,.31-.55,.78-1.02,1.36-1.36,.58-.35,1.23-.51,1.86-.51-.31-.54-.49-1.18-.49-1.86s.18-1.33,.51-1.87c.65,0,1.29,.15,1.87,.49,.58,.34,1.05,.81,1.36,1.36,.31-.55,.78-1.02,1.36-1.36,.58-.35,1.21-.49,1.86-.49h.02c.31,.54,.49,1.18,.49,1.87s-.18,1.32-.49,1.86c.63,0,1.27,.16,1.87,.51,.58,.34,1.05,.81,1.36,1.36Z"/><path class="cls-5" d="M88.52,493.31c-.29,.51-.72,.94-1.26,1.26-.55,.32-1.15,.47-1.73,.47,.29,.51,.46,1.09,.46,1.73s-.17,1.22-.47,1.73c-.58,0-1.16-.15-1.71-.47-.54-.32-.97-.75-1.26-1.26-.29,.51-.72,.94-1.26,1.26-.55,.32-1.15,.47-1.73,.47-.3-.51-.47-1.09-.47-1.73s.17-1.22,.46-1.73c-.58,0-1.17-.15-1.71-.47-.54-.32-.97-.75-1.26-1.26,.29-.51,.72-.94,1.26-1.26,.54-.32,1.13-.47,1.71-.47-.29-.5-.46-1.09-.46-1.71s.17-1.23,.47-1.73c.59,0,1.19,.14,1.73,.46,.54,.32,.97,.75,1.26,1.26,.29-.51,.72-.94,1.26-1.26,.54-.32,1.12-.46,1.71-.46h.01c.29,.5,.46,1.09,.46,1.73s-.17,1.22-.46,1.71c.58,0,1.17,.15,1.73,.47,.54,.32,.97,.75,1.26,1.26Z"/><path class="cls-5" d="M450.71,472.45c-.26,.45-.63,.83-1.11,1.11-.49,.28-1.01,.41-1.52,.41,.26,.45,.4,.96,.4,1.52s-.15,1.07-.41,1.52c-.51,0-1.02-.13-1.51-.41-.47-.28-.85-.66-1.11-1.11-.26,.45-.63,.83-1.11,1.11-.49,.28-1.01,.41-1.52,.41-.27-.45-.41-.96-.41-1.52s.15-1.07,.4-1.52c-.51,0-1.04-.13-1.51-.41-.47-.28-.85-.66-1.11-1.11,.26-.45,.63-.83,1.11-1.11,.47-.28,1-.41,1.51-.41-.26-.44-.4-.96-.4-1.51s.15-1.08,.41-1.52c.52,0,1.05,.12,1.52,.4,.47,.28,.85,.66,1.11,1.11,.26-.45,.63-.83,1.11-1.11,.47-.28,.99-.4,1.51-.4h.01c.26,.44,.4,.96,.4,1.52s-.15,1.07-.4,1.51c.51,0,1.04,.13,1.52,.41,.47,.28,.85,.66,1.11,1.11Z"/><path class="cls-5" d="M32.8,404.63c-.28,.48-.68,.89-1.19,1.19-.52,.3-1.09,.45-1.64,.45,.28,.48,.43,1.04,.43,1.64s-.16,1.15-.45,1.64c-.55,0-1.1-.14-1.63-.45-.51-.3-.92-.71-1.19-1.19-.28,.48-.68,.89-1.19,1.19-.52,.3-1.09,.45-1.64,.45-.29-.48-.45-1.04-.45-1.64s.16-1.15,.43-1.64c-.55,0-1.11-.14-1.63-.45-.51-.3-.92-.71-1.19-1.19,.28-.48,.68-.89,1.19-1.19,.51-.3,1.07-.45,1.63-.45-.28-.47-.43-1.04-.43-1.63s.16-1.17,.45-1.64c.56,0,1.13,.13,1.64,.43,.51,.3,.92,.71,1.19,1.19,.28-.48,.68-.89,1.19-1.19,.51-.3,1.06-.43,1.63-.43h.01c.28,.47,.43,1.04,.43,1.64s-.16,1.15-.43,1.63c.55,0,1.11,.14,1.64,.45,.51,.3,.92,.71,1.19,1.19Z"/><path class="cls-5" d="M460.96,412.35c-.2,.35-.49,.64-.86,.86-.38,.22-.78,.32-1.18,.32,.2,.35,.31,.75,.31,1.18s-.11,.83-.32,1.18c-.4,0-.79-.1-1.17-.32-.37-.22-.66-.51-.86-.86-.2,.35-.49,.64-.86,.86-.38,.22-.78,.32-1.18,.32-.21-.35-.32-.75-.32-1.18s.11-.83,.31-1.18c-.4,0-.8-.1-1.17-.32-.37-.22-.66-.51-.86-.86,.2-.35,.49-.64,.86-.86,.37-.22,.77-.32,1.17-.32-.2-.34-.31-.75-.31-1.17s.11-.84,.32-1.18c.41,0,.81,.09,1.18,.31,.37,.22,.66,.51,.86,.86,.2-.35,.49-.64,.86-.86,.37-.22,.76-.31,1.17-.31h0c.2,.34,.31,.75,.31,1.18s-.11,.83-.31,1.17c.4,0,.8,.1,1.18,.32,.37,.22,.66,.51,.86,.86Z"/></g><path id="right_hand" class="cls-12" d="M138.53,345.08c0,.53,0,1.06,0,1.58,.13,5.34,.13,8.89-5,14.05-.43,.31-.86,.59-1.31,.84-1.34,.73-2.76,1.12-4.23,1.12-7.85,0-14.22-11.14-14.22-24.89s6.37-24.89,14.22-24.89c1.47,0,2.89,.39,4.23,1.12,.45,.24,.88,.52,1.31,.84,5.13,5.16,5.13,8.71,5.01,14.54,0,.71-.14,4.81-.23,5.98-.08,.84,.19,7.58,.21,9.71Z"/><path id="left_hand" class="cls-12" d="M352.05,345.08c0,.53,0,1.06,0,1.58-.13,5.34-.13,8.89,5,14.05,.43,.31,.86,.59,1.31,.84,1.34,.73,2.76,1.12,4.23,1.12,7.85,0,14.22-11.14,14.22-24.89,0-13.75-6.37-24.89-14.22-24.89-1.47,0-2.89,.39-4.23,1.12-.45,.24-.88,.52-1.31,.84-5.13,5.16-5.13,8.71-5.01,14.54,0,.71,.14,4.81,.23,5.98,.08,.84-.19,7.58-.21,9.71Z"/><text class="cls-15" transform="translate(122.19 207.14) rotate(-35.8)"><tspan x="0" y="0">Z</tspan></text><text class="cls-14" transform="translate(65.95 180.47) rotate(-23.56)"><tspan x="0" y="0">Z</tspan></text><text class="cls-13" transform="translate(103.79 119.54) rotate(-54.26)"><tspan x="0" y="0">Z</tspan></text></svg>