<?xml version="1.0" encoding="UTF-8"?><svg id="Layer_1" xmlns="http://www.w3.org/2000/svg" viewBox="0 0 56.12 56.17"><defs><style>.cls-1{opacity:.1;}.cls-2{fill:#fff;}.cls-3{fill:#ff735d;}.cls-4{opacity:.2;}.cls-5{opacity:.3;}.cls-6{opacity:.43;}.cls-7{opacity:.4;}.cls-8{opacity:.63;}.cls-9{opacity:.6;}.cls-10{opacity:.7;}</style></defs><path class="cls-3" d="M54.75,15c-.72-1.06-1.72-1.89-2.75-2.65-3.72-2.78-5.92-7-9.95-9.3-1.47-.84-4.25-1.09-6.34-1.15-1.68-.05-3.33-.32-4.95-.76C27.62,.29,24.16,0,24.16,0c-5.39-.02-9.25,4.92-13.78,7.85-2.48,1.6-5.35,2.69-7.39,4.82C-1,16.84-.5,23.62,1.61,29c.58,1.46,1.26,2.92,1.44,4.48,.19,1.56-.13,3.13-.07,4.7,.16,4.24,2.97,7.86,5.83,11,1.74,1.92,3.76,3.89,6.33,4.21,1.69,.21,3.38-.32,5.08-.27,3.91,.11,7.33,3.27,11.23,3.05,4.5-.25,7.51-4.73,11.64-6.53,2.43-1.06,5.27-1.2,7.42-2.74,2.39-1.72,3.38-4.83,3.61-7.77,.22-2.94-.16-5.91,.19-8.84,.31-2.6,1.19-5.11,1.61-7.69,.42-2.59,.32-5.42-1.16-7.58Z"/><g class="cls-10"><path class="cls-2" d="M54.75,15c-.72-1.06-1.72-1.89-2.75-2.65-3.72-2.78-5.92-7-9.95-9.3-1.47-.84-4.25-1.09-6.34-1.15-1.68-.05-3.33-.32-4.95-.76C27.62,.29,24.16,0,24.16,0c-5.39-.02-9.25,4.92-13.78,7.85-2.48,1.6-5.35,2.69-7.39,4.82C-1,16.84-.5,23.62,1.61,29c.58,1.46,1.26,2.92,1.44,4.48,.19,1.56-.13,3.13-.07,4.7,.16,4.24,2.97,7.86,5.83,11,1.74,1.92,3.76,3.89,6.33,4.21,1.69,.21,3.38-.32,5.08-.27,3.91,.11,7.33,3.27,11.23,3.05,4.5-.25,7.51-4.73,11.64-6.53,2.43-1.06,5.27-1.2,7.42-2.74,2.39-1.72,3.38-4.83,3.61-7.77,.22-2.94-.16-5.91,.19-8.84,.31-2.6,1.19-5.11,1.61-7.69,.42-2.59,.32-5.42-1.16-7.58Z"/></g><path class="cls-3" d="M48.08,10.32c-.86-.75-1.92-1.23-2.97-1.66-3.84-1.54-6.69-4.67-10.69-5.74-1.46-.39-3.91,.04-5.72,.46-1.45,.34-2.94,.49-4.44,.48-2.89-.01-5.94,.53-5.94,.53-4.64,1.21-6.84,6.35-10.07,9.91-1.77,1.95-3.99,3.54-5.26,5.84-2.48,4.51-.5,10.23,2.54,14.37,.83,1.13,1.75,2.22,2.27,3.53,.52,1.3,.6,2.73,1.01,4.06,1.1,3.61,4.36,6.09,7.53,8.14,1.94,1.25,4.13,2.49,6.41,2.18,1.5-.2,2.84-1.05,4.31-1.39,3.39-.8,7.06,1.14,10.37,.06,3.82-1.24,5.39-5.79,8.53-8.28,1.85-1.47,4.26-2.23,5.76-4.06,1.67-2.03,1.81-4.93,1.33-7.52-.48-2.58-1.49-5.05-1.86-7.66-.33-2.31-.14-4.67-.37-6.99s-.96-4.74-2.73-6.27Z"/><g class="cls-7"><path class="cls-2" d="M48.08,10.32c-.86-.75-1.92-1.23-2.97-1.66-3.84-1.54-6.69-4.67-10.69-5.74-1.46-.39-3.91,.04-5.72,.46-1.45,.34-2.94,.49-4.44,.48-2.89-.01-5.94,.53-5.94,.53-4.64,1.21-6.84,6.35-10.07,9.91-1.77,1.95-3.99,3.54-5.26,5.84-2.48,4.51-.5,10.23,2.54,14.37,.83,1.13,1.75,2.22,2.27,3.53,.52,1.3,.6,2.73,1.01,4.06,1.1,3.61,4.36,6.09,7.53,8.14,1.94,1.25,4.13,2.49,6.41,2.18,1.5-.2,2.84-1.05,4.31-1.39,3.39-.8,7.06,1.14,10.37,.06,3.82-1.24,5.39-5.79,8.53-8.28,1.85-1.47,4.26-2.23,5.76-4.06,1.67-2.03,1.81-4.93,1.33-7.52-.48-2.58-1.49-5.05-1.86-7.66-.33-2.31-.14-4.67-.37-6.99s-.96-4.74-2.73-6.27Z"/></g><g><circle class="cls-3" cx="28.51" cy="27.76" r="21.57"/><g class="cls-1"><path class="cls-3" d="M29.74,13.13c-1.2-2.13-4.1-2.67-6.5-2.19l-2.72,.76c-3.23,1.09-5.67,3.74-7.64,6.52-1.2,1.69-2.31,3.5-2.79,5.52-.48,2.02-.28,4.28,.96,5.95,1.24,1.67,3.62,2.53,5.51,1.66,2.12-.97,2.89-3.52,4.3-5.38,1.14-1.5,2.73-2.58,4.28-3.66,1.55-1.08,3.11-2.22,4.13-3.81,1.02-1.58,1.41-3.72,.48-5.36Z"/></g></g><g class="cls-5"><g class="cls-6"><path d="M37.81,15.33c.28,1.52,3.64-.13,4.23-.87,.58-.73,.39-1.65-.5-2.01-1.27-.51-2.37,.48-3.17,1.38-.25,.28-.48,.59-.54,.96-.04,.21-.04,.39-.01,.54Z"/></g><g class="cls-6"><path d="M39.36,17.57c-.12-.21-.39-.4-.65-.37-.11,.01-.22,.02-.32,.05-.33,.09-.61,.43-.59,.78v.04c0,.09,.02,.17,.05,.24,0,.02-.01,.04-.01,.07-.02,.42,.39,.64,.75,.57,.27-.05,.5-.21,.65-.43,.02-.03,.04-.06,.06-.09,.02-.03,.02-.05,.04-.08,0-.01,.01-.02,.02-.03,0-.02,.01-.04,.02-.05,.02-.04,.04-.08,.06-.13,.04-.19,.04-.39-.08-.58Z"/></g><path d="M47.04,22.19c.62,0,.62-.96,0-.96s-.62,.96,0,.96Z"/><path d="M37.34,12.46c.35,.08,.84-.11,.9-.51v-.06c.17-.19,.32-.39,.45-.6,.29-.47-.19-1.08-.71-.93-.53,.16-1.06,.62-1.15,1.2-.05,.38,.09,.8,.51,.9Z"/><g class="cls-6"><path d="M35.44,10.34c.46,0,.46-.71,0-.71s-.46,.71,0,.71Z"/></g><path d="M41.01,17.94c.62,0,.62-.96,0-.96s-.62,.96,0,.96Z"/><path d="M45.55,24.16c.02,.55,.45,1.02,1.02,1.02,.54,0,1.05-.47,1.02-1.02-.02-.55-.45-1.02-1.02-1.02-.54,0-1.05,.47-1.02,1.02Z"/><g class="cls-6"><path d="M33.58,35.18c-.34-.22-.82-.32-1.21-.28-.86,.1-2.29,1.33-1.34,2.2,.84,.76,2.16,.06,2.73-.68,.42-.54,.22-.98-.19-1.24Z"/></g><path d="M43.25,38.65c-.86,0-.86,1.34,0,1.34s.86-1.34,0-1.34Z"/><path d="M44.45,36.54c-.38,0-.38,.59,0,.59s.38-.59,0-.59Z"/><path d="M30.6,33.44c-.7,0-.7,1.09,0,1.09s.7-1.09,0-1.09Z"/></g><g class="cls-5"><path d="M11.55,32.14c-.5,0-.98,.44-.96,.96,.02,.52,.42,.96,.96,.96,.5,0,.98-.44,.96-.96-.02-.52-.42-.96-.96-.96Z"/><g class="cls-8"><path d="M29.53,36.47c-.15-.54-.51-1.06-1.03-1.31-.52-.25-1.16-.37-1.71-.16-.41,.16-.81,.38-1.02,.79-.22,.42-.27,.85-.17,1.32,.03,.14,.08,.25,.15,.36,.06,.3,.22,.58,.46,.79l-.06-.05c.12,.1,.24,.21,.38,.29,.19,.11,.36,.16,.54,.19h-.1c.46,.06,.87,.14,1.33-.01,.91-.3,1.51-1.26,1.24-2.21Z"/></g><path d="M14.91,33.98c.56,0,.57-.88,0-.88s-.57,.88,0,.88Z"/><path d="M9.36,30.88c.89,0,.89-1.38,0-1.38s-.89,1.38,0,1.38Z"/></g><g class="cls-4"><path class="cls-2" d="M49.95,30.15c.02-.15,.03-.3,.05-.45,0-.02,0-.04,0-.07v-.04c.02-.16,.03-.31,.04-.47,.01-.15,.02-.3,.02-.45,.01-.22,.02-.44,.02-.66,0-.55,0-1.1-.04-1.64,0-.07,0-.15-.01-.23l-.02-.21c-.01-.19-.03-.39-.05-.58-.12-1.1-.33-2.18-.61-3.24-.07-.25-.14-.5-.21-.74-.11-.35-.23-.71-.35-1.05-.1-.28-.21-.54-.32-.81-.13-.31-.27-.63-.41-.93-.05-.12-.11-.24-.17-.36h0c-.04-.09-.09-.18-.13-.27-.02-.04-.04-.08-.07-.12-.09-.18-.18-.35-.28-.52-.03-.06-.06-.12-.1-.18-.02-.04-.05-.08-.07-.12-.05-.08-.09-.16-.14-.23-.19-.32-.39-.65-.6-.96l-.03-.05c-.17-.26-.36-.52-.54-.77l-.17-.23c-.04-.06-.08-.11-.13-.17h0c-.34-.45-.7-.88-1.07-1.3-.06-.06-.11-.13-.17-.19-.08-.09-.16-.17-.24-.26-.15-.16-.31-.32-.46-.47-.04-.04-.08-.08-.13-.13h0c-.08-.08-.15-.15-.23-.22h0c-.63-.6-1.3-1.15-2-1.67,.13,.11,.25,.22,.38,.33,0,0,.02,.01,.03,.02,.13,.12,.27,.24,.39,.36h0c.08,.08,.15,.15,.23,.23h0s.08,.08,.13,.13c.16,.16,.31,.31,.46,.47,.08,.09,.16,.17,.24,.26,.06,.06,.11,.13,.17,.19,.38,.42,.73,.85,1.07,1.29h0c.05,.07,.08,.12,.13,.18,.25,.33,.49,.66,.71,1l.03,.05s.05,.08,.08,.12c.23,.35,.45,.71,.66,1.07,.02,.04,.05,.08,.07,.12,.03,.06,.07,.12,.1,.18,.07,.12,.13,.24,.19,.36,.05,.09,.1,.19,.15,.28,.05,.09,.09,.18,.13,.27h0c.09,.19,.18,.37,.26,.56,.11,.24,.22,.48,.32,.72,.14,.32,.26,.65,.38,.98,.11,.3,.2,.59,.3,.9,.08,.25,.15,.5,.22,.75,.03,.13,.07,.25,.1,.38,.28,1.12,.47,2.26,.56,3.44l.02,.21c0,.06,0,.12,.01,.18,.03,.36,.04,.71,.04,1.08,0,.2,0,.4,0,.61,0,.37-.02,.73-.04,1.11,0,.15-.02,.3-.03,.46h0c-.02,.2-.04,.39-.06,.57,0,.08-.02,.16-.03,.24,0,.07-.02,.13-.03,.19-.02,.12-.03,.24-.05,.36-.07,.44-.14,.88-.24,1.3-.05,.25-.11,.49-.17,.73-.01,.05-.02,.1-.04,.14-.1,.41-.22,.81-.34,1.21-.04,.11-.08,.23-.12,.35-.64,1.89-1.53,3.65-2.63,5.26,0,0-.01,.02-.02,.03-.16,.24-.33,.46-.5,.69-.47,.62-.96,1.22-1.49,1.78-.53,.57-1.09,1.11-1.67,1.62-.36,.31-.72,.6-1.1,.89h0c-.79,.6-1.61,1.14-2.47,1.62h0c-1.3,.73-2.68,1.33-4.13,1.78h0c-.45,.14-.9,.26-1.35,.38-.24,.06-.48,.11-.71,.16-.37,.08-.74,.14-1.11,.2-.79,.12-1.6,.2-2.41,.22-1.15,.05-2.32,0-3.5-.15-2.35-.29-4.57-.95-6.6-1.92-.44-.21-.87-.43-1.29-.66-.34-.19-.67-.38-1-.59-.32-.21-.64-.42-.95-.64-.14-.1-.27-.2-.41-.3,.21,.18,.43,.36,.64,.53,.09,.08,.18,.15,.27,.22,.02,.02,.04,.03,.05,.04,.03,.03,.06,.05,.09,.07,.18,.14,.36,.27,.54,.4,.63,.45,1.28,.86,1.95,1.23,.42,.24,.85,.46,1.29,.66,2.03,.96,4.25,1.62,6.6,1.92,2.01,.25,4,.21,5.91-.08,.12-.02,.24-.04,.37-.06,.25-.04,.5-.09,.75-.14,.24-.05,.48-.1,.71-.16,1.24-.3,2.45-.71,3.6-1.22,.95-.42,1.87-.9,2.75-1.45,.95-.59,1.85-1.25,2.69-1.98,.33-.29,.66-.59,.98-.9,.63-.62,1.22-1.27,1.78-1.96,.15-.18,.29-.37,.43-.55,.17-.23,.33-.46,.5-.69,.26-.38,.51-.77,.75-1.17h0c.98-1.64,1.75-3.43,2.27-5.33,.02-.07,.04-.15,.06-.22,.02-.08,.05-.17,.07-.26,.03-.13,.06-.25,.09-.37,.03-.12,.05-.25,.08-.38,.02-.09,.04-.17,.06-.26,.04-.19,.07-.37,.1-.56,.03-.15,.05-.31,.08-.47,.03-.18,.05-.37,.08-.56,0-.08,.02-.16,.03-.24Z"/></g><path class="cls-2" d="M46.57,16.03s-.04-.04-.11-.14l-.31-.41-.49-.67c-.2-.27-.41-.58-.7-.89l-.95-1.06c-.16-.2-.37-.38-.58-.57-.21-.19-.42-.39-.65-.59-.23-.2-.44-.43-.71-.62l-.8-.6c-.28-.2-.55-.43-.86-.62l-.95-.58c-1.3-.81-2.84-1.47-4.53-2.05l-1.32-.35c-.22-.06-.45-.13-.68-.17l-.7-.12c-.47-.07-.95-.18-1.43-.22l-1.49-.11-.38-.03h-.38l-.77,.03-.78,.02c-.26,0-.52,.06-.78,.08-.52,.07-1.05,.11-1.58,.21l-1.59,.35c-2.12,.57-4.22,1.47-6.2,2.7-1.94,1.28-3.64,2.82-5.04,4.5l-.99,1.3c-.31,.44-.57,.91-.85,1.35-.13,.23-.29,.44-.4,.68l-.34,.7c-.11,.23-.23,.46-.34,.69l-.17,.34-.13,.35c-.18,.47-.35,.94-.53,1.4-.16,.46-.26,.94-.4,1.4l-.19,.69c-.05,.23-.08,.46-.13,.69l-.23,1.35c-.18,1.78-.22,3.46-.03,4.98l.13,1.11c.04,.36,.14,.7,.21,1.04l.21,.98c.06,.32,.18,.61,.27,.9l.27,.84c.09,.27,.16,.53,.28,.76,.21,.48,.4,.91,.57,1.3,.16,.4,.35,.72,.51,1.01l.4,.73,.24,.45c.05,.1,.08,.16,.08,.16,0,0-.04-.05-.1-.15-.07-.11-.15-.25-.26-.44-.12-.2-.26-.44-.42-.72-.17-.29-.37-.61-.53-1.01-.18-.39-.37-.83-.59-1.3-.12-.23-.2-.5-.29-.76l-.28-.84c-.09-.29-.22-.58-.28-.9-.07-.32-.15-.65-.22-.98-.07-.34-.17-.68-.22-1.04-.05-.36-.09-.74-.14-1.12-.2-1.53-.17-3.22,0-5.02l.23-1.36c.04-.23,.07-.46,.12-.7l.19-.69c.13-.46,.23-.94,.4-1.41l.53-1.41,.13-.36,.17-.35,.34-.7,.34-.71c.11-.24,.27-.45,.4-.68,.28-.45,.55-.92,.86-1.37l1-1.31c1.42-1.7,3.13-3.26,5.09-4.55,2-1.24,4.12-2.15,6.26-2.72,.54-.12,1.08-.24,1.61-.36,.53-.09,1.07-.14,1.6-.21,.26-.03,.53-.08,.79-.08l.79-.02,.78-.02h.38l.38,.02c.51,.04,1.01,.07,1.5,.11,.49,.05,.97,.16,1.45,.23l.71,.12c.23,.05,.46,.12,.68,.18,.45,.12,.89,.24,1.33,.36,1.71,.6,3.26,1.27,4.56,2.1l.96,.59c.31,.19,.58,.43,.86,.64l.8,.61c.27,.19,.48,.43,.7,.63,.22,.21,.44,.41,.64,.61,.21,.19,.41,.37,.57,.58,.34,.39,.65,.75,.94,1.08,.29,.31,.5,.64,.69,.91l.48,.69,.29,.42c.06,.1,.1,.15,.09,.15Z"/><g class="cls-9"><path class="cls-2" d="M54.55,19.62c-.2-.67-.96-1.17-1.62-.94h0c-.33,.27-.52,.67-.52,1.1,0,.3,.03,.61-.07,1.05-.09,.38-.04,.8,.24,1.08,.5,.5,1.13,.12,1.49-.33,.43-.55,.69-1.29,.49-1.96Z"/></g><path class="cls-3" d="M3.26,45.03c-.38-.17-.84-.12-1.19,.1-.51,.32-.87,.89-.85,1.49,.02,.8,.77,1.54,1.57,1.46,.18-.02,.37-.08,.51-.19,.11-.09,.18-.21,.25-.34,.37-.73,.7-2.09-.28-2.52Z"/><g class="cls-9"><path class="cls-2" d="M3.26,45.03c-.38-.17-.84-.12-1.19,.1-.51,.32-.87,.89-.85,1.49,.02,.8,.77,1.54,1.57,1.46,.18-.02,.37-.08,.51-.19,.11-.09,.18-.21,.25-.34,.37-.73,.7-2.09-.28-2.52Z"/></g><g class="cls-1"><path class="cls-2" d="M44.19,13.53c.14-.06,.36,.05,.59,.38,.23,.32,.45,.88,.54,1.59,.1,.72,.09,1.54,0,2.5-.09,.96-.29,2.04-.65,3.22-.37,1.17-.89,2.44-1.67,3.7-.77,1.26-1.78,2.54-3.08,3.66-.33,.28-.66,.56-1.03,.81-.35,.26-.74,.51-1.15,.75-.83,.47-1.82,.89-3,1.05-.59,.08-1.21,.07-1.73,.02-.53-.05-.98-.13-1.38-.2-.41-.07-.72-.11-1.03-.13-.31-.02-.63-.02-.95,0-1.29,.09-2.54,.53-3.56,1.2-.51,.34-.94,.71-1.38,1.19-.44,.48-.88,1.03-1.33,1.61-.91,1.16-1.91,2.46-3.32,3.44-.7,.48-1.48,.86-2.27,1.07-.79,.21-1.54,.27-2.23,.24-1.38-.06-2.53-.45-3.43-.87-.9-.43-1.58-.9-2.1-1.31-1.03-.84-1.47-1.45-1.32-1.72,.15-.28,.91-.18,2.12,.14,1.19,.29,2.88,.81,4.64,.55,.43-.06,.85-.18,1.23-.35,.38-.17,.73-.42,1.08-.73,.71-.63,1.39-1.64,2.21-2.89,.42-.62,.87-1.3,1.45-2.01,.57-.7,1.31-1.43,2.13-2.01,1.64-1.17,3.64-1.93,5.79-2.08,.53-.04,1.07-.04,1.6,0,.54,.04,1.06,.13,1.47,.21,.86,.17,1.4,.25,1.79,.21,.43-.04,.95-.2,1.49-.46,.27-.13,.54-.28,.81-.46,.28-.16,.53-.35,.79-.53,2.03-1.49,3.45-3.49,4.4-5.31,.48-.91,.86-1.78,1.16-2.57,.3-.79,.55-1.49,.71-2.03,.34-1.07,.34-1.75,.64-1.88Z"/></g><g class="cls-1"><path class="cls-2" d="M48.15,27.45c.14,.29-.22,.76-.76,1.51-.56,.74-1.29,1.78-2.08,3.22-.81,1.41-1.62,3.28-2.98,5.39-.35,.53-.73,1.07-1.17,1.6-.44,.54-.95,1.06-1.48,1.54-1.06,.97-2.26,1.8-3.5,2.52-2.47,1.44-5.01,2.44-7.39,3.06-2.38,.61-4.57,.89-6.48,.85-1.9-.03-3.45-.43-4.43-.9-.98-.47-1.4-.96-1.3-1.25,.1-.31,.7-.4,1.63-.49,.94-.1,2.24-.22,3.82-.57,1.57-.34,3.48-.9,5.51-1.65,2.03-.75,4.2-1.74,6.34-2.98,1.06-.62,2.02-1.26,2.86-1.95,.83-.68,1.51-1.41,2.18-2.24,1.32-1.64,2.5-3.45,3.79-4.84,1.27-1.4,2.6-2.33,3.62-2.74,1.03-.42,1.69-.35,1.82-.08Z"/></g><g class="cls-1"><path class="cls-2" d="M35.44,13.53c-.17-.58-1-1.06-1.7-.68-.48,.3-.74,.92-.57,1.46,.17,.54,.79,.9,1.34,.74,.58-.17,1.11-.92,.94-1.52Z"/></g></svg>